<svg width="32" height="42" viewBox="0 0 32 42" fill="none" xmlns="http://www.w3.org/2000/svg">
<path fill-rule="evenodd" clip-rule="evenodd" d="M15.7349 0C9.25082 0 3.97556 5.27526 3.97556 11.7594V16.8071H3.05058C1.36853 16.8071 0 18.1757 0 19.8577V38.9492C0 40.6312 1.36853 41.9997 3.05058 41.9997H28.4195C30.1015 41.9997 31.47 40.6312 31.47 38.9491V19.8577C31.47 18.1757 30.1015 16.8071 28.4195 16.8071H27.4942V11.7594C27.4943 5.27526 22.2191 0 15.7349 0ZM5.39593 16.8071H7.91822V11.7594C7.91822 7.44917 11.4249 3.9425 15.7351 3.9425C20.0452 3.9425 23.5519 7.44917 23.5519 11.7594V16.8071H26.0742V11.7594C26.0742 6.05833 21.4361 1.42021 15.735 1.42021C10.034 1.42021 5.39593 6.05833 5.39593 11.7594V16.8071ZM4.68586 18.2275L4.66684 18.2273H3.05058C2.15152 18.2273 1.42013 18.9586 1.42013 19.8577V38.9491C1.42013 39.8481 2.15152 40.5795 3.05058 40.5795H28.4195C29.3185 40.5795 30.0498 39.8481 30.0498 38.9491V19.8577C30.0498 18.9586 29.3185 18.2273 28.4195 18.2273H26.8032L26.7842 18.2275H22.842L22.823 18.2273H8.64706L8.62804 18.2275H4.68586ZM9.3381 11.7594V16.8071H22.1315V11.7594C22.1315 8.23224 19.262 5.36263 15.7348 5.36263C12.2076 5.36263 9.3381 8.23224 9.3381 11.7594ZM19.4352 27.5148C19.4352 28.6129 18.9525 29.6348 18.1229 30.3338L18.9209 34.1373C18.9648 34.3465 18.9121 34.5645 18.7773 34.7307C18.6425 34.8967 18.44 34.9932 18.2261 34.9932H13.2437C13.0298 34.9932 12.8274 34.8966 12.6924 34.7307C12.5576 34.5646 12.5048 34.3466 12.5487 34.1371L13.347 30.334C12.5172 29.6348 12.0345 28.6129 12.0345 27.5148C12.0345 25.4744 13.6945 23.8145 15.7349 23.8145C17.7753 23.8145 19.4352 25.4744 19.4352 27.5148ZM16.6395 30.1796C16.5788 29.8902 16.7039 29.5935 16.9532 29.4347C17.6182 29.0116 18.0152 28.2939 18.015 27.5149C18.015 26.2576 16.9922 25.2347 15.7349 25.2347C14.4775 25.2347 13.4547 26.2576 13.4547 27.5149C13.4547 28.2938 13.8517 29.0116 14.5168 29.4349C14.7664 29.5936 14.8912 29.8903 14.8305 30.1798L14.1183 33.5729H17.3516L16.6395 30.1796Z" fill="white"/>
</svg>
