<svg width="41" height="29" viewBox="0 0 41 29" fill="none" xmlns="http://www.w3.org/2000/svg">
<path fill-rule="evenodd" clip-rule="evenodd" d="M1.96612 0H38.8305C39.9119 0 40.7966 0.884696 40.7966 1.96604V27.0339C40.7966 28.1153 39.9118 29 38.8305 29H1.96612C0.884696 29 0 28.1152 0 27.0339V1.96604C0 0.884696 0.884696 0 1.96612 0ZM1.96604 1.47457C1.69967 1.47457 1.47457 1.69967 1.47457 1.96604V4.42364H39.3219V1.96604C39.3219 1.69967 39.0968 1.47457 38.8304 1.47457H1.96604ZM38.8305 27.5253C39.097 27.5253 39.322 27.3002 39.3221 27.0339V11.7966H1.47465V27.0339C1.47465 27.3002 1.69975 27.5253 1.96612 27.5253H38.8305ZM1.47457 10.322H39.322V5.89829H1.47457V10.322ZM30.2287 17.931C30.9842 17.1779 32.0263 16.7119 33.1779 16.7119C35.4846 16.7119 37.3559 18.5827 37.3558 20.8898C37.3558 23.1965 35.4846 25.0677 33.1779 25.0677C32.0263 25.0677 30.9843 24.6018 30.2287 23.8487C29.4728 24.6018 28.4307 25.0677 27.2796 25.0677C24.972 25.0677 23.1017 23.1966 23.1017 20.8898C23.1017 18.5827 24.9719 16.7119 27.2796 16.7119C28.4307 16.7119 29.4728 17.1779 30.2287 17.931ZM31.2698 22.8044C31.78 23.3132 32.4578 23.5933 33.1779 23.5933C34.6687 23.5933 35.8813 22.3807 35.8813 20.8899C35.8813 19.3991 34.6686 18.1865 33.1779 18.1865C32.4578 18.1865 31.78 18.4666 31.2698 18.9754C30.9818 19.262 30.6058 19.4055 30.2287 19.4055C29.8526 19.4055 29.4757 19.2624 29.1881 18.9754C28.6773 18.4666 27.999 18.1865 27.2795 18.1865C25.7887 18.1865 24.5761 19.3991 24.5761 20.8899C24.5761 22.3807 25.7888 23.5933 27.2795 23.5933C27.9991 23.5933 28.6774 23.3132 29.1881 22.8044C29.4757 22.5178 29.8522 22.3743 30.2287 22.3743C30.6052 22.3743 30.9817 22.5178 31.2698 22.8044ZM16.2203 18.1865H4.42372C4.01671 18.1865 3.68643 18.5169 3.68643 18.9238C3.68643 19.3307 4.01679 19.6611 4.42372 19.6611H16.2203C16.6273 19.6611 16.9576 19.3307 16.9576 18.9238C16.9576 18.5167 16.6273 18.1865 16.2203 18.1865ZM4.42372 21.627H9.83142C10.2384 21.627 10.5688 21.9573 10.5688 22.3642C10.5688 22.7712 10.2385 23.1015 9.8315 23.1015H4.42372C4.01679 23.1015 3.68643 22.7712 3.68643 22.3642C3.68643 21.9573 4.01671 21.627 4.42372 21.627Z" fill="white"/>
</svg>
