<svg width="51" height="34" viewBox="0 0 51 34" fill="none" xmlns="http://www.w3.org/2000/svg">
<path fill-rule="evenodd" clip-rule="evenodd" d="M34.2429 29.1501H17.0094C16.851 30.2732 16.3321 31.3222 15.5209 32.1334C14.5362 33.118 13.2012 33.6716 11.8087 33.673C10.7701 33.6729 9.75482 33.3647 8.8913 32.7876C8.02779 32.2105 7.3548 31.3902 6.95743 30.4306C6.78659 30.0181 6.67 29.5877 6.60869 29.1501H0.728572C0.535342 29.1501 0.350027 29.0734 0.213394 28.9368C0.07676 28.8001 0 28.6148 0 28.4216V20.4075V0.728572C0 0.535342 0.07676 0.350027 0.213394 0.213394C0.350027 0.0767601 0.535342 0 0.728572 0H34.2429C34.4361 0 34.6214 0.0767601 34.758 0.213394C34.8947 0.350027 34.9714 0.535342 34.9714 0.728572V5.10709H43.9329C44.0447 5.10708 44.1551 5.13284 44.2554 5.18237C44.3558 5.23189 44.4433 5.30386 44.5114 5.39269L50.8499 13.6765C50.9473 13.8037 51 13.9594 51 14.1195V28.4214C51 28.6146 50.9232 28.7999 50.7866 28.9366C50.65 29.0732 50.4647 29.1499 50.2714 29.1499H47.4572C47.2988 30.273 46.78 31.322 45.9689 32.1332C44.9843 33.1177 43.6495 33.6715 42.2572 33.673C41.2185 33.673 40.2032 33.365 39.3396 32.788C38.476 32.2109 37.8028 31.3907 37.4054 30.4311C37.2344 30.0183 37.1177 29.5877 37.0564 29.1499H34.26L34.2429 29.1501ZM49.5429 27.6928H47.4579C47.3486 26.9127 47.0647 26.164 46.6237 25.5039C46.0466 24.6402 45.2264 23.9671 44.2668 23.5697C43.3072 23.1722 42.2513 23.0682 41.2326 23.2708C40.2139 23.4734 39.2782 23.9736 38.5438 24.7081C37.8093 25.4425 37.3092 26.3782 37.1065 27.3969C37.087 27.4952 37.0703 27.5939 37.0564 27.6928H34.9714V20.4098L34.9714 20.4075L34.9714 20.4051V6.56423H43.5729L49.5429 14.3665V27.6928ZM33.5143 27.693H17.0102C16.9009 26.9129 16.6171 26.1641 16.176 25.5039C15.599 24.6403 14.7788 23.9672 13.8193 23.5697C12.8597 23.1722 11.8039 23.0682 10.7852 23.2708C9.7665 23.4733 8.83076 23.9734 8.09629 24.7078C7.36182 25.4422 6.8616 26.3778 6.65889 27.3965C6.63928 27.495 6.62254 27.5939 6.60866 27.693H1.45714V21.1361H33.5143V27.693ZM33.5143 19.6789L33.5143 5.83566L33.5143 5.8333V1.45714H1.45714V19.6789H33.5143ZM40.9159 30.4291C41.313 30.6942 41.7797 30.8357 42.2571 30.8355C42.897 30.8347 43.5104 30.5802 43.9628 30.1276C44.4152 29.6751 44.6696 29.0616 44.6702 28.4218C44.6702 27.9443 44.5286 27.4776 44.2633 27.0807C43.9981 26.6837 43.6211 26.3743 43.18 26.1917C42.7389 26.009 42.2535 25.9612 41.7852 26.0544C41.317 26.1476 40.8869 26.3776 40.5494 26.7152C40.2118 27.0529 39.982 27.483 39.8889 27.9513C39.7959 28.4196 39.8438 28.9049 40.0266 29.346C40.2094 29.787 40.5189 30.1639 40.9159 30.4291ZM41.7254 27.6268C41.8828 27.5217 42.0679 27.4657 42.2571 27.4659C42.5106 27.4661 42.7536 27.5668 42.9328 27.7461C43.1121 27.9253 43.2128 28.1683 43.213 28.4218C43.2132 28.611 43.1572 28.7961 43.0521 28.9535C42.9471 29.1109 42.7977 29.2337 42.6228 29.3061C42.448 29.3786 42.2556 29.3976 42.07 29.3608C41.8843 29.3239 41.7138 29.2327 41.58 29.0989C41.4462 28.9651 41.355 28.7946 41.3181 28.6089C41.2813 28.4233 41.3003 28.2309 41.3728 28.0561C41.4453 27.8812 41.568 27.7318 41.7254 27.6268ZM11.8087 24.6263C11.0583 24.6265 10.3248 24.8491 9.70093 25.2661C9.07705 25.6831 8.59083 26.2757 8.30373 26.969C8.01663 27.6623 7.94155 28.4252 8.08798 29.1612C8.23441 29.8971 8.59578 30.5732 9.12639 31.1038C9.657 31.6344 10.333 31.9957 11.069 32.1422C11.805 32.2886 12.5678 32.2135 13.2612 31.9264C13.9545 31.6393 14.5471 31.1531 14.9641 30.5292C15.3811 29.9054 15.6037 29.1719 15.6038 28.4215C15.6027 27.4153 15.2024 26.4508 14.4909 25.7394C13.7795 25.0281 12.8148 24.628 11.8087 24.6271V24.6263ZM10.5104 30.3646C10.8946 30.6215 11.3465 30.7587 11.8087 30.7589C12.4285 30.7583 13.0227 30.5119 13.461 30.0737C13.8993 29.6356 14.1459 29.0414 14.1467 28.4216C14.1467 27.9594 14.0096 27.5075 13.7528 27.1232C13.496 26.7389 13.1311 26.4393 12.704 26.2624C12.277 26.0854 11.8071 26.0391 11.3537 26.1292C10.9003 26.2194 10.4839 26.4419 10.157 26.7687C9.83009 27.0955 9.60743 27.5119 9.51716 27.9652C9.4269 28.4185 9.47308 28.8885 9.64987 29.3156C9.82666 29.7427 10.1261 30.1077 10.5104 30.3646ZM11.32 27.6894C11.4646 27.5927 11.6347 27.5409 11.8087 27.5408V27.5415C12.0421 27.5417 12.2659 27.6345 12.4311 27.7995C12.5962 27.9645 12.6891 28.1882 12.6895 28.4216C12.6894 28.5956 12.6377 28.7657 12.5409 28.9103C12.4441 29.0549 12.3067 29.1676 12.1459 29.2342C11.9851 29.3007 11.8082 29.3181 11.6375 29.2841C11.4669 29.2501 11.3101 29.1663 11.1871 29.0432C11.064 28.9202 10.9802 28.7634 10.9463 28.5928C10.9123 28.4221 10.9296 28.2452 10.9962 28.0844C11.0627 27.9236 11.1754 27.7862 11.32 27.6894ZM42.2572 24.6263C41.5067 24.6263 40.7732 24.8488 40.1492 25.2657C39.5252 25.6826 39.0389 26.2752 38.7517 26.9685C38.4645 27.6618 38.3893 28.4247 38.5356 29.1607C38.682 29.8967 39.0433 30.5728 39.5739 31.1035C40.1044 31.6342 40.7805 31.9956 41.5165 32.1421C42.2525 32.2886 43.0154 32.2136 43.7087 31.9265C44.4021 31.6394 44.9947 31.1532 45.4117 30.5293C45.8288 29.9054 46.0514 29.1719 46.0516 28.4215C46.0504 27.4155 45.6503 26.451 44.9389 25.7397C44.2276 25.0283 43.2631 24.6282 42.2572 24.6271V24.6263ZM37.8857 18.9502H46.0238C46.2171 18.9502 46.4024 18.8735 46.539 18.7368C46.6756 18.6002 46.7524 18.4149 46.7524 18.2217V14.1526C46.7523 13.993 46.6998 13.8379 46.603 13.7111L43.4993 9.642C43.4314 9.55281 43.3438 9.48051 43.2433 9.43072C43.1428 9.38093 43.0322 9.355 42.9201 9.35495H37.8857C37.6925 9.35495 37.5071 9.43171 37.3705 9.56834C37.2339 9.70497 37.1571 9.89029 37.1571 10.0835V18.2217C37.1571 18.4149 37.2339 18.6002 37.3705 18.7368C37.5071 18.8735 37.6925 18.9502 37.8857 18.9502ZM45.2953 17.4931H38.6143V10.8121H42.5595L45.2953 14.3988V17.4931Z" fill="white"/>
</svg>
