<svg width="114" height="28" viewBox="0 0 114 28" fill="none" xmlns="http://www.w3.org/2000/svg">
<g clip-path="url(#clip0_342_772)">
<path d="M15.788 12.9406H12.9812V11.557C12.9812 10.4327 12.0164 9.48146 10.8762 9.48146C9.73593 9.48146 8.85882 10.4327 8.85882 11.557V12.9406H6.05206V11.557C6.05206 8.8761 8.24484 6.71411 10.8762 6.71411C13.5075 6.71411 15.7003 8.8761 15.7003 11.557V12.9406H15.788Z" fill="#FFA400"/>
<path d="M16.9283 12.9407H4.99955C4.47328 12.9407 4.03473 13.3731 4.03473 13.8919V22.7129C4.03473 23.2317 4.47328 23.6641 4.99955 23.6641H16.9283C17.4545 23.6641 17.8931 23.2317 17.8931 22.7129V13.8919C17.8054 13.3731 17.4545 12.9407 16.9283 12.9407ZM11.5779 18.7348V19.9455C11.5779 20.2914 11.3148 20.5509 10.9639 20.5509C10.6131 20.5509 10.3499 20.2914 10.3499 19.9455V18.7348C9.99909 18.5618 9.73596 18.1294 9.73596 17.697C9.73596 17.0052 10.2622 16.4863 10.9639 16.4863C11.6656 16.4863 12.1919 17.0052 12.1919 17.697C12.1919 18.1294 11.9287 18.5618 11.5779 18.7348Z" fill="#003A70"/>
<path d="M3.77158 11.6435H0.877112C0.438556 11.6435 0 11.2976 0 10.7787C0 10.3463 0.350845 9.91394 0.877112 9.91394H3.77158C4.21014 9.91394 4.64869 10.2599 4.64869 10.7787C4.56098 11.2976 4.21014 11.6435 3.77158 11.6435Z" fill="#FFA400"/>
<path d="M5.78896 7.14662C5.61354 7.14662 5.43811 7.06015 5.26269 6.97367L2.9822 5.07112C2.63136 4.81168 2.54365 4.20632 2.89449 3.8604C3.15762 3.51448 3.68389 3.428 4.12245 3.77392L6.40294 5.67647C6.75378 5.93591 6.84149 6.54127 6.49065 6.88719C6.22751 7.06015 6.05209 7.14662 5.78896 7.14662Z" fill="#FFA400"/>
<path d="M10.9639 5.15751C10.5253 5.15751 10.0868 4.81159 10.0868 4.29272V1.43889C10.0868 1.00649 10.4376 0.574097 10.9639 0.574097C11.4902 0.574097 11.841 0.920015 11.841 1.43889V4.29272C11.7533 4.72511 11.4025 5.15751 10.9639 5.15751Z" fill="#FFA400"/>
<path d="M16.0512 7.14655C15.788 7.14655 15.5249 7.06008 15.4372 6.80064C15.1741 6.45472 15.1741 5.93584 15.5249 5.58992L17.8054 3.68737C18.1562 3.42793 18.6825 3.42793 19.0334 3.77385C19.2965 4.11977 19.2965 4.63865 18.9456 4.98457L16.6652 6.88712C16.4897 7.06008 16.3143 7.14655 16.0512 7.14655Z" fill="#FFA400"/>
<path d="M20.963 11.6435H18.0685C17.63 11.6435 17.1914 11.2976 17.1914 10.7787C17.1914 10.3463 17.5423 9.91394 18.0685 9.91394H20.963C21.4015 9.91394 21.8401 10.2599 21.8401 10.7787C21.8401 11.2976 21.4893 11.6435 20.963 11.6435Z" fill="#FFA400"/>
<path d="M24.8223 23.6641V12.9407H27.4536V21.4157H31.576V23.6641H24.8223Z" fill="#003A70"/>
<path d="M40.1717 19.9455C40.1717 20.032 40.1717 20.1185 40.1717 20.2914C40.1717 20.3779 40.1717 20.4644 40.1717 20.5509H34.6459C34.6459 20.7238 34.7336 20.9833 34.8213 21.1562C34.909 21.3292 35.0845 21.5021 35.2599 21.5886C35.4353 21.6751 35.6107 21.8481 35.7862 21.8481C35.9616 21.9345 36.2247 21.9345 36.4001 21.9345C36.8387 21.9345 37.1018 21.8481 37.365 21.6751C37.6281 21.5021 37.8912 21.3292 38.0666 21.0698L39.8209 22.194C39.47 22.7129 39.0315 23.1453 38.4175 23.4047C37.8035 23.6641 37.1895 23.8371 36.4001 23.8371C35.8739 23.8371 35.2599 23.7506 34.8213 23.5777C34.2951 23.4047 33.8565 23.1453 33.5057 22.7993C33.1548 22.4534 32.804 22.021 32.6286 21.5886C32.4531 21.0698 32.2777 20.5509 32.2777 19.859C32.2777 19.2537 32.3654 18.6483 32.6286 18.2159C32.804 17.6971 33.1548 17.2647 33.5057 16.9187C33.8565 16.5728 34.2951 16.3134 34.8213 16.1404C35.3476 15.9675 35.8739 15.881 36.4001 15.881C36.9264 15.881 37.4527 15.9675 37.8912 16.1404C38.3298 16.3134 38.7683 16.5728 39.1192 16.9187C39.47 17.2647 39.7332 17.6971 39.9086 18.2159C40.084 18.7348 40.1717 19.2537 40.1717 19.9455ZM37.8912 18.9942C37.8912 18.5618 37.8035 18.3024 37.5404 17.9565C37.2772 17.6971 36.9264 17.5241 36.4001 17.5241C36.137 17.5241 35.9616 17.5241 35.6984 17.6106C35.523 17.6971 35.3476 17.7835 35.1722 17.9565C34.9968 18.1294 34.909 18.2159 34.8213 18.3889C34.7336 18.5618 34.6459 18.7348 34.6459 18.9078L37.8912 18.9942Z" fill="#003A70"/>
<path d="M44.1187 17.9565V20.8103C44.1187 21.1562 44.2064 21.4156 44.2941 21.5886C44.4695 21.7616 44.645 21.848 44.9958 21.848C45.0835 21.848 45.2589 21.848 45.3466 21.848C45.5221 21.848 45.6098 21.7616 45.6975 21.7616V23.5776C45.5221 23.6641 45.3466 23.6641 45.0835 23.7506C44.8204 23.8371 44.5572 23.8371 44.2941 23.8371C43.7678 23.8371 43.3293 23.7506 42.9784 23.6641C42.6276 23.5776 42.3645 23.3182 42.189 23.1452C42.0136 22.8858 41.8382 22.6264 41.7505 22.2804C41.6628 21.9345 41.5751 21.5886 41.5751 21.1562V17.9565H40.3471V16.1404H41.5751V14.1514H44.031V16.1404H45.7852V17.9565H44.1187Z" fill="#003A70"/>
<path d="M53.9424 18.3024C53.7669 18.1294 53.5038 17.9565 53.2407 17.7835C52.9775 17.6106 52.7144 17.6106 52.3636 17.6106C52.1004 17.6106 51.925 17.6971 51.7496 17.7835C51.5742 17.87 51.4864 18.043 51.4864 18.2159C51.4864 18.3889 51.5742 18.5618 51.8373 18.6483C52.0127 18.7348 52.3636 18.8213 52.8898 18.9942C53.153 19.0807 53.4161 19.1672 53.7669 19.2537C54.0301 19.3402 54.2932 19.5131 54.5563 19.6861C54.8195 19.859 54.9949 20.1185 55.0826 20.3779C55.258 20.6374 55.258 20.9833 55.258 21.3292C55.258 21.7616 55.1703 22.194 54.9949 22.5399C54.8195 22.8858 54.5563 23.1453 54.2055 23.3182C53.8546 23.4912 53.5915 23.6641 53.153 23.7506C52.8021 23.8371 52.3636 23.9236 52.0127 23.9236C51.3987 23.9236 50.7848 23.8371 50.1708 23.6641C49.5568 23.4912 49.1182 23.1453 48.6797 22.7993L50.0831 21.3292C50.3462 21.5886 50.6093 21.7616 50.8725 21.9345C51.2233 22.1075 51.5742 22.194 51.925 22.194C52.1004 22.194 52.3636 22.1075 52.539 22.021C52.7144 21.9345 52.8021 21.7616 52.8021 21.5022C52.8021 21.2427 52.7144 21.0698 52.4513 20.9833C52.1881 20.8968 51.8373 20.7238 51.311 20.6374C51.0479 20.5509 50.7848 20.4644 50.5216 20.3779C50.2585 20.2914 49.9954 20.1185 49.8199 19.9455C49.6445 19.7726 49.4691 19.5996 49.2937 19.3402C49.206 18.9942 49.206 18.7348 49.206 18.3889C49.206 17.9565 49.2937 17.5241 49.4691 17.2647C49.6445 16.9187 49.9076 16.6593 50.1708 16.4863C50.4339 16.3134 50.7848 16.1404 51.2233 16.0539C51.5742 15.9675 51.925 15.881 52.3636 15.881C52.8898 15.881 53.5038 15.9675 54.0301 16.1404C54.5563 16.3134 54.9949 16.5728 55.4335 16.9187L53.9424 18.3024Z" fill="#003A70"/>
<path d="M59.7313 23.6641V12.9407H66.9236V15.1027H62.1872V17.0917H66.6605V19.1672H62.1872V21.4157H67.1868V23.6641H59.7313Z" fill="#003A70"/>
<path d="M73.7651 23.6641V19.5131C73.7651 19.3401 73.7651 19.0807 73.6774 18.9077C73.6774 18.7347 73.5897 18.5618 73.502 18.3888C73.4143 18.2159 73.3265 18.1294 73.1511 18.0429C72.9757 17.9564 72.8003 17.9564 72.6249 17.9564C72.3617 17.9564 72.1863 17.9564 72.0109 18.0429C71.8354 18.1294 71.7477 18.2159 71.5723 18.3888C71.4846 18.5618 71.3969 18.7347 71.3092 18.9077C71.2215 19.0807 71.2215 19.3401 71.2215 19.5131V23.5776H68.6779V16.0539H71.1338V17.0916C71.2215 16.9187 71.3092 16.7457 71.4846 16.5727C71.66 16.3998 71.8354 16.3133 72.0109 16.1404C72.1863 16.0539 72.4494 15.9674 72.6249 15.8809C72.888 15.7944 73.0634 15.7944 73.3265 15.7944C73.8528 15.7944 74.2914 15.8809 74.6422 16.0539C74.993 16.2268 75.2562 16.4863 75.5193 16.7457C75.6947 17.0051 75.8702 17.3511 75.9579 17.697C76.0456 18.0429 76.1333 18.4753 76.1333 18.8212V23.4911H73.7651V23.6641Z" fill="#003A70"/>
<path d="M82.7116 18.5618C82.5362 18.3888 82.3607 18.2159 82.0976 18.1294C81.8345 18.0429 81.5714 17.9564 81.3959 17.9564C81.1328 17.9564 80.8697 18.0429 80.6942 18.1294C80.5188 18.2159 80.2557 18.3888 80.168 18.5618C79.9925 18.7348 79.9048 18.9077 79.8171 19.1672C79.7294 19.4266 79.7294 19.686 79.7294 19.9455C79.7294 20.2049 79.7294 20.4643 79.8171 20.7238C79.9048 20.9832 79.9925 21.1562 80.168 21.3291C80.3434 21.5021 80.5188 21.6751 80.6942 21.7615C80.8697 21.848 81.1328 21.9345 81.3959 21.9345C81.6591 21.9345 81.9222 21.848 82.1853 21.7615C82.4485 21.6751 82.6239 21.5021 82.7993 21.3291L84.2027 22.9723C83.8518 23.3182 83.501 23.4911 82.9747 23.6641C82.4485 23.837 81.9222 23.9235 81.3959 23.9235C80.782 23.9235 80.2557 23.837 79.7294 23.6641C79.2031 23.4911 78.7646 23.2317 78.4137 22.8858C78.0629 22.5399 77.7121 22.1075 77.5366 21.5886C77.3612 21.0697 77.1858 20.5508 77.1858 19.9455C77.1858 19.3401 77.2735 18.7348 77.5366 18.3024C77.7121 17.7835 78.0629 17.3511 78.4137 17.0052C78.7646 16.6592 79.2031 16.3998 79.7294 16.2268C80.2557 16.0539 80.782 15.9674 81.3959 15.9674C81.6591 15.9674 81.9222 15.9674 82.1853 16.0539C82.4485 16.1404 82.7116 16.1404 82.9747 16.2268C83.2379 16.3133 83.4133 16.3998 83.6764 16.5728C83.8518 16.6592 84.0273 16.8322 84.2027 17.0052L82.7116 18.5618Z" fill="#003A70"/>
<path d="M89.9917 18.1294C89.9039 18.1294 89.7285 18.043 89.6408 18.043C89.5531 18.043 89.4654 18.043 89.29 18.043C88.9391 18.043 88.676 18.1294 88.4129 18.2159C88.1497 18.3024 87.9743 18.4754 87.8866 18.6483C87.7112 18.8213 87.6235 18.9942 87.6235 19.1672C87.5357 19.3402 87.5358 19.5131 87.5358 19.6861V23.5777H85.0798V16.0539H87.448V17.1782C87.6235 16.8323 87.8866 16.4863 88.2374 16.2269C88.5883 15.9675 89.0268 15.881 89.4654 15.881C89.5531 15.881 89.6408 15.881 89.7285 15.881C89.8162 15.881 89.9039 15.881 89.9917 15.9675V18.1294Z" fill="#003A70"/>
<path d="M95.8683 24.7884C95.6928 25.2208 95.5174 25.5667 95.342 25.8261C95.1666 26.1721 94.9034 26.4315 94.6403 26.6045C94.3772 26.8639 94.114 26.9504 93.7632 27.1233C93.4123 27.2098 92.9738 27.2963 92.5352 27.2963C92.2721 27.2963 92.0967 27.2963 91.8335 27.2098C91.5704 27.2098 91.395 27.1233 91.2196 27.1233L91.4827 25.0478C91.5704 25.0478 91.7458 25.1343 91.9213 25.1343C92.0967 25.1343 92.1844 25.1343 92.3598 25.1343C92.7107 25.1343 93.0615 25.0478 93.2369 24.8749C93.4123 24.7019 93.5878 24.4425 93.6755 24.0966L93.9386 23.4912L90.781 16.054H93.5878L95.2543 20.8968H95.342L96.8331 16.054H99.4644L95.8683 24.7884Z" fill="#003A70"/>
<path d="M108.323 19.859C108.323 20.3779 108.236 20.8968 108.06 21.4157C107.885 21.9345 107.622 22.3669 107.358 22.7129C107.008 23.0588 106.657 23.4047 106.218 23.5777C105.78 23.8371 105.253 23.9236 104.727 23.9236C104.289 23.9236 103.85 23.8371 103.411 23.6641C102.973 23.4912 102.71 23.2317 102.447 22.8858V27.3828H99.9907V16.0539H102.359V17.0052H102.447C102.71 16.6593 102.973 16.3999 103.411 16.2269C103.85 15.9675 104.289 15.881 104.903 15.881C105.429 15.881 105.955 15.9675 106.394 16.2269C106.832 16.3999 107.183 16.7458 107.534 17.0917C107.885 17.4376 108.06 17.87 108.236 18.3889C108.236 18.8213 108.323 19.2537 108.323 19.859ZM105.867 19.859C105.867 19.5996 105.867 19.3402 105.78 19.1672C105.692 18.9078 105.604 18.7348 105.429 18.5618C105.253 18.3889 105.078 18.2159 104.903 18.1294C104.639 18.043 104.464 17.9565 104.113 17.9565C103.85 17.9565 103.587 18.043 103.324 18.1294C103.061 18.2159 102.885 18.3889 102.797 18.5618C102.622 18.7348 102.534 18.9078 102.447 19.1672C102.359 19.4266 102.359 19.5996 102.359 19.859C102.359 20.1185 102.359 20.3779 102.447 20.5509C102.534 20.8103 102.622 20.9833 102.797 21.1562C102.973 21.3292 103.148 21.5022 103.324 21.5886C103.587 21.6751 103.762 21.7616 104.113 21.7616C104.376 21.7616 104.639 21.6751 104.903 21.5886C105.166 21.5022 105.341 21.3292 105.429 21.1562C105.604 20.9833 105.692 20.7238 105.78 20.5509C105.867 20.2914 105.867 20.032 105.867 19.859Z" fill="#003A70"/>
<path d="M112.27 17.9565V20.8103C112.27 21.1562 112.358 21.4156 112.446 21.5886C112.621 21.7616 112.797 21.848 113.147 21.848C113.235 21.848 113.411 21.848 113.498 21.848C113.586 21.848 113.761 21.7616 113.849 21.7616V23.5776C113.674 23.6641 113.498 23.6641 113.235 23.7506C112.972 23.8371 112.709 23.8371 112.446 23.8371C111.92 23.8371 111.481 23.7506 111.13 23.6641C110.779 23.5776 110.516 23.3182 110.341 23.1452C110.165 22.8858 109.99 22.6264 109.902 22.2804C109.814 21.9345 109.727 21.5886 109.727 21.1562V17.9565H108.499V16.1404H109.727V14.1514H112.183V16.1404H113.937V17.9565H112.27Z" fill="#003A70"/>
<path d="M48.2411 12.6813C47.4517 12.6813 46.9254 13.2002 46.9254 13.892C46.9254 14.5838 47.4517 15.1027 48.1534 15.1027C48.2411 15.1027 48.2411 15.1027 48.3288 15.1027C48.2411 15.6216 47.7148 16.054 47.1885 16.1405H47.1008V17.2647H47.1885C47.8025 17.1782 48.3288 16.9188 48.7673 16.4864C49.2936 15.9675 49.6445 15.1892 49.6445 14.2379C49.6445 13.3731 49.0305 12.6813 48.2411 12.6813Z" fill="#003A70"/>
</g>
<defs>
<clipPath id="clip0_342_772">
<rect width="113.937" height="26.8087" fill="white" transform="translate(0 0.574097)"/>
</clipPath>
</defs>
</svg>
