<svg width="56" height="20" viewBox="0 0 56 20" fill="none" xmlns="http://www.w3.org/2000/svg">
<path d="M40.8457 6.1001H35.0457C34.9457 6.1001 34.8457 6.20011 34.8457 6.30011V7.50012C34.8457 7.60012 34.9457 7.7001 35.0457 7.7001H36.9457V14.2001C36.9457 14.3001 37.0458 14.4001 37.1458 14.4001H38.6458C38.7458 14.4001 38.8457 14.3001 38.8457 14.2001V7.7001H40.7457C40.8457 7.7001 40.9457 7.60012 40.9457 7.50012V6.30011C41.1457 6.20011 41.0457 6.1001 40.8457 6.1001Z" fill="#F71963"/>
<path d="M47.0458 6.09998C46.6458 5.99998 46.0458 6 44.7458 6C43.2458 6 42.0458 6.39999 42.0458 8.39999V12.1C42.0458 14.1 43.3458 14.5 44.7458 14.5C45.9458 14.5 46.6458 14.4 47.0458 14.4C47.2458 14.4 47.2458 14.3 47.2458 14.2V13.2C47.2458 13.1 47.1458 13 47.0458 13H44.6458C44.1458 13 43.9458 12.8 43.9458 12.2V11H46.9458C47.0458 11 47.1458 10.9 47.1458 10.8V9.69998C47.1458 9.59998 47.0458 9.5 46.9458 9.5H43.9458V8.5C43.9458 7.9 44.1458 7.69998 44.6458 7.69998H47.0458C47.1458 7.69998 47.2458 7.6 47.2458 7.5V6.5C47.2458 6.2 47.1458 6.19998 47.0458 6.09998Z" fill="#F71963"/>
<path d="M55.6459 14.2L53.0458 10.2L55.5458 6.30003C55.5458 6.30003 55.5458 6.30002 55.5458 6.20002C55.5458 6.10002 55.4458 6.00001 55.3458 6.10001H53.6459C53.5459 6.10001 53.4458 6.20003 53.3458 6.30003L51.9459 8.60001L50.5458 6.30003C50.4458 6.20003 50.3458 6.10001 50.2458 6.10001H48.4459C48.3459 6.10001 48.2458 6.20002 48.2458 6.20002C48.2458 6.20002 48.2458 6.20003 48.2458 6.30003L50.7458 10.2L48.3458 14.3V14.4C48.3458 14.5 48.4458 14.5 48.5458 14.5H50.2458C50.3458 14.5 50.4458 14.4 50.5458 14.3L51.9459 11.9L53.5458 14.4C53.6458 14.5 53.6458 14.6 53.8458 14.6H55.6459C55.7459 14.6 55.7458 14.6 55.7458 14.5C55.6458 14.3 55.6459 14.3 55.6459 14.2Z" fill="#F71963"/>
<path d="M33.8458 6.1001H32.2458C32.1458 6.1001 32.0458 6.2001 32.0458 6.2001L30.4458 12.2001C30.4458 12.3001 30.3458 12.4001 30.2458 12.4001C30.1458 12.4001 30.1458 12.4001 30.0458 12.2001L28.4458 6.2001C28.4458 6.1001 28.3458 6.1001 28.2458 6.1001H26.6458C26.5458 6.1001 26.4458 6.20011 26.4458 6.30011C26.4458 6.30011 28.4458 13.2001 28.4458 13.3001C28.7458 14.1001 29.3458 14.5001 30.1458 14.5001C30.9458 14.5001 31.6458 14.1001 31.8458 13.3001C31.8458 13.2001 33.8458 6.30011 33.8458 6.30011C33.9458 6.20011 33.9458 6.2001 33.8458 6.1001Z" fill="#F71963"/>
<path d="M22.2458 0H4.74579C3.34579 0 2.54581 1.39998 3.14581 2.59998L4.84576 5.89999H1.64581C1.04581 5.89999 0.445801 6.39998 0.445801 7.09998C0.445801 7.29998 0.445776 7.49998 0.545776 7.59998L6.14581 18.2C6.44581 18.8 7.14579 19 7.74579 18.7C7.94579 18.6 8.14579 18.4 8.24579 18.2L9.74579 15.3L11.6458 18.9C12.3458 20.2 14.1458 20.2 14.8458 18.9L23.6458 2.39999C24.4458 1.49999 23.6458 0 22.2458 0ZM14.4458 7.09998L10.6458 14.2C10.4458 14.6 9.94581 14.7 9.64581 14.5C9.54581 14.4 9.44576 14.3 9.34576 14.2L5.64581 7.09998C5.44581 6.69998 5.5458 6.29998 5.9458 6.09998C6.0458 5.99998 6.14576 6 6.34576 6H13.8458C14.2458 6 14.6458 6.29999 14.6458 6.79999C14.5458 6.89999 14.5458 6.99998 14.4458 7.09998Z" fill="#F71963"/>
</svg>
