<svg width="26" height="27" viewBox="0 0 26 27" fill="none" xmlns="http://www.w3.org/2000/svg">
<path fill-rule="evenodd" clip-rule="evenodd" d="M24.8413 5.89946L12.7016 0.0389306C12.594 -0.0129769 12.4686 -0.0129769 12.3611 0.0389306L0.221364 5.89946C0.0860076 5.96479 0 6.10187 0 6.25216V20.4849C0 20.6352 0.0860076 20.7722 0.221364 20.8376L12.361 26.6981C12.4148 26.7241 12.4731 26.7371 12.5313 26.7371C12.5895 26.7371 12.6478 26.7241 12.7016 26.6981L24.8413 20.8376C24.9766 20.7722 25.0626 20.6352 25.0626 20.4849V6.25221C25.0626 6.10181 24.9766 5.96484 24.8413 5.89946ZM12.5313 0.826576L23.7701 6.25216L20.5122 7.82494C20.4916 7.80922 20.4698 7.79471 20.4459 7.78317L9.28344 2.39451L12.5313 0.826576ZM8.39893 2.83734L19.6214 8.25503L17.3229 9.36467L6.10508 3.94917L8.39893 2.83734ZM19.8839 8.99803V13.0998L17.737 14.1362V10.0345L19.8839 8.99803ZM24.2793 20.2391L12.923 25.7214V12.3585L15.6318 11.0508C15.8266 10.9567 15.9083 10.7226 15.8142 10.5278C15.7202 10.3331 15.4861 10.2513 15.2912 10.3454L12.5313 11.6778L11.4453 11.1535C11.2505 11.0593 11.0164 11.1411 10.9223 11.3359C10.8283 11.5307 10.91 11.7648 11.1047 11.8589L12.1397 12.3585V25.7214L0.783312 20.239V6.87614L9.43107 11.0509C9.48596 11.0775 9.54397 11.09 9.60105 11.09C9.74664 11.09 9.88649 11.0084 9.95401 10.8685C10.0481 10.6737 9.96639 10.4396 9.7716 10.3455L1.29252 6.25216L5.18322 4.37388L16.9482 10.0536C16.9496 10.0554 16.951 10.0571 16.9524 10.0588C16.9528 10.0593 16.9533 10.0599 16.9537 10.0605V14.7603C16.9537 14.8951 17.023 15.0203 17.1371 15.092C17.2005 15.1318 17.2729 15.1519 17.3454 15.1519C17.4035 15.1519 17.4617 15.139 17.5156 15.113L20.4459 13.6984C20.5812 13.633 20.6673 13.496 20.6673 13.3457V8.61995L24.2793 6.8762V20.2391ZM4.01546 18.7201L2.23394 17.86C2.03906 17.7659 1.805 17.8477 1.71095 18.0424C1.6169 18.2372 1.69858 18.4714 1.89336 18.5654L3.67487 19.4255C3.72976 19.452 3.78777 19.4645 3.84485 19.4645C3.99044 19.4645 4.13029 19.383 4.19781 19.2431C4.29191 19.0482 4.21024 18.8142 4.01546 18.7201ZM2.23638 16.0024L5.65501 17.6528C5.8498 17.7468 5.93147 17.981 5.83742 18.1759C5.7699 18.3158 5.63005 18.3973 5.48446 18.3973C5.42738 18.3973 5.36937 18.3848 5.31448 18.3583L1.89585 16.7079C1.70107 16.6138 1.61939 16.3797 1.71339 16.1849C1.80744 15.9901 2.04155 15.9084 2.23638 16.0024Z" fill="black"/>
</svg>
