<svg width="50" height="32" viewBox="0 0 50 32" fill="none" xmlns="http://www.w3.org/2000/svg">
<path fill-rule="evenodd" clip-rule="evenodd" d="M49.9896 29.7796C49.9896 30.7023 49.2397 31.4678 48.3129 31.4678H1.67673C0.760259 31.4678 0 30.7128 0 29.7796V1.68821C0 0.76546 0.749844 0 1.67673 0H48.3233C49.2397 0 50 0.754974 50 1.68821L49.9896 29.7796Z" fill="white"/>
<path d="M8.22297 4.26807H7.27216V27.1899H8.22297V4.26807Z" fill="#020202"/>
<path d="M11.5874 4.26758H9.17377V19.8389H11.5874V4.26758Z" fill="#020202"/>
<path d="M15.7041 4.26758H14.8473V19.8389H15.7041V4.26758Z" fill="#020202"/>
<path d="M17.1599 19.8452H17.7868L17.7868 4.27386H17.1599L17.1599 19.8452Z" fill="#020202"/>
<path d="M18.0729 19.8452H18.6998L18.6998 4.27386H18.0729L18.0729 19.8452Z" fill="#020202"/>
<path d="M18.9359 19.8452H19.8658L19.8658 4.27386H18.9359L18.9359 19.8452Z" fill="#020202"/>
<path d="M21.3217 19.8452H23.098L23.098 4.27386H21.3217L21.3217 19.8452Z" fill="#020202"/>
<path d="M23.7055 19.8452H24.2906L24.2906 4.27386H23.7055L23.7055 19.8452Z" fill="#020202"/>
<path d="M25.4563 19.8452H28.3818L28.3818 4.27386H25.4563V19.8452Z" fill="#020202"/>
<path d="M29.6277 19.8452H30.7665L30.7665 4.27386H29.6277L29.6277 19.8452Z" fill="#020202"/>
<path d="M31.6669 19.8452H32.5341V4.27386H31.6669L31.6669 19.8452Z" fill="#020202"/>
<path d="M34.0473 19.8452H34.5802V4.27386H34.0473V19.8452Z" fill="#020202"/>
<path d="M35.7645 19.8452H36.3705V4.27386H35.7645V19.8452Z" fill="#020202"/>
<path d="M38.1339 19.8452H39.8788V4.27386H38.1339V19.8452Z" fill="#020202"/>
<path d="M40.1955 19.8452H41.0836V4.27386H40.1955V19.8452Z" fill="#020202"/>
<path d="M42.0026 27.2012H42.8907V4.2793H42.0026V27.2012Z" fill="#020202"/>
<path d="M9.39321 21.1914H11.6292C12.068 21.1914 12.4024 21.2124 12.6218 21.2438C12.8412 21.2858 13.0397 21.3592 13.2069 21.4745C13.3741 21.5899 13.5204 21.7472 13.6353 21.9464C13.7502 22.1456 13.8025 22.3658 13.8025 22.607C13.8025 22.8691 13.7293 23.1103 13.5935 23.3305C13.4472 23.5507 13.2592 23.7185 13.0188 23.8233C13.3636 23.9282 13.6249 24.096 13.8025 24.3371C13.9905 24.5783 14.0741 24.8614 14.0741 25.1865C14.0741 25.4381 14.0114 25.6898 13.8965 25.931C13.7816 26.1721 13.6144 26.3609 13.4159 26.5077C13.2069 26.6545 12.9561 26.7384 12.6531 26.7698C12.4651 26.7908 12.0053 26.8013 11.2844 26.8118H9.37231V21.1914H9.39321ZM10.5321 22.1351V23.4354H11.2739C11.7128 23.4354 11.9844 23.4249 12.0994 23.4144C12.2979 23.3934 12.4442 23.32 12.5591 23.2152C12.674 23.0998 12.7263 22.953 12.7263 22.7748C12.7263 22.5965 12.674 22.4602 12.58 22.3553C12.486 22.2505 12.3397 22.1771 12.1516 22.1561C12.0367 22.1456 11.7128 22.1351 11.1799 22.1351H10.5321ZM10.5321 24.3686V25.8681H11.5769C11.9844 25.8681 12.2457 25.8576 12.3501 25.8366C12.5173 25.8051 12.6531 25.7317 12.7576 25.6164C12.8621 25.5011 12.9144 25.3333 12.9144 25.1341C12.9144 24.9663 12.8726 24.8195 12.789 24.7041C12.7054 24.5888 12.5905 24.5049 12.4337 24.442C12.277 24.3896 11.9426 24.3581 11.4307 24.3581H10.5321V24.3686Z" fill="black"/>
<path d="M14.816 24.0437C14.816 23.467 14.8996 22.9951 15.0772 22.5966C15.2026 22.3135 15.3802 22.0514 15.5996 21.8207C15.819 21.59 16.0594 21.4222 16.3206 21.3174C16.6654 21.1706 17.0729 21.0972 17.5326 21.0972C18.358 21.0972 19.0163 21.3593 19.5178 21.8731C20.0089 22.3869 20.2596 23.0999 20.2596 24.0227C20.2596 24.935 20.0089 25.6375 19.5178 26.1513C19.0267 26.6651 18.3685 26.9168 17.543 26.9168C16.7072 26.9168 16.0489 26.6651 15.5578 26.1513C15.0667 25.6375 14.816 24.935 14.816 24.0437ZM15.9862 24.0017C15.9862 24.6414 16.1325 25.1237 16.425 25.4488C16.7176 25.7738 17.0938 25.9416 17.543 25.9416C17.9923 25.9416 18.3685 25.7738 18.6506 25.4488C18.9431 25.1237 19.0894 24.6309 19.0894 23.9808C19.0894 23.3411 18.9536 22.8588 18.6715 22.5337C18.3894 22.2087 18.0132 22.0619 17.5535 22.0619C17.0938 22.0619 16.7072 22.2191 16.425 22.5442C16.122 22.8693 15.9862 23.3516 15.9862 24.0017Z" fill="black"/>
<path d="M21.1686 26.8221V21.2437H22.2971V25.8784H25.1077V26.8221H21.1686Z" fill="black"/>
<path d="M25.9227 26.822V21.2017H30.0812V22.1559H27.0616V23.4037H29.8723V24.3474H27.0616V25.8783H30.1962V26.822H25.9227Z" fill="black"/>
<path d="M32.4008 26.8223V22.1456H30.7394V21.1914H35.1905V22.1456H33.5292V26.8223H32.4008Z" fill="black"/>
<path d="M35.5563 24.0437C35.5563 23.467 35.6399 22.9951 35.8175 22.5966C35.9429 22.3135 36.1205 22.0514 36.3399 21.8207C36.5593 21.59 36.7996 21.4222 37.0609 21.3174C37.4057 21.1706 37.8131 21.0972 38.2729 21.0972C39.0983 21.0972 39.7566 21.3593 40.2581 21.8731C40.7596 22.3869 40.9999 23.0999 40.9999 24.0227C40.9999 24.935 40.7492 25.6375 40.2581 26.1513C39.767 26.6651 39.1088 26.9168 38.2833 26.9168C37.4475 26.9168 36.7892 26.6651 36.2981 26.1513C35.7966 25.6375 35.5563 24.935 35.5563 24.0437ZM36.7265 24.0017C36.7265 24.6414 36.8728 25.1237 37.1653 25.4488C37.4579 25.7738 37.8341 25.9416 38.2833 25.9416C38.7326 25.9416 39.1088 25.7738 39.3909 25.4488C39.6834 25.1237 39.8297 24.6309 39.8297 23.9808C39.8297 23.3411 39.6939 22.8588 39.4118 22.5337C39.1297 22.2191 38.7535 22.0619 38.2938 22.0619C37.8236 22.0619 37.4475 22.2191 37.1653 22.5442C36.8623 22.8693 36.7265 23.3516 36.7265 24.0017Z" fill="black"/>
</svg>
