<svg width="50" height="31" viewBox="0 0 50 31" fill="none" xmlns="http://www.w3.org/2000/svg">
<rect width="50" height="31" rx="3" fill="#21C25E"/>
<g clip-path="url(#clip0_342_641)">
<path d="M15.1966 19.9263H16.8253V15.0615H15.1966V19.9263ZM17.3869 11.7512H16.2918V12.8738H17.3869V11.7512ZM11.237 12.2981H9.66445V13.7086H11.1247C12.0514 13.7086 12.585 14.1692 12.585 15.0328C12.585 15.8963 12.0514 16.3857 11.1247 16.3857H9.66445V13.7374H8.03571V19.9263H9.66445V17.7962H11.2089C13.0904 17.7962 14.1856 16.7599 14.1856 14.9752C14.1856 13.3056 13.1185 12.2981 11.237 12.2981ZM18.4821 10.6285H15.1966V13.9965H18.4821V10.6285ZM17.9486 13.4208H15.7582V11.1755H17.9486V13.4208ZM27.4964 12.2981H26.0081V13.7086H27.4121C28.3388 13.7086 28.8724 14.1692 28.8724 15.0328C28.8724 15.8963 28.3388 16.3857 27.4121 16.3857H26.0081V13.7374H24.3793V19.9263H26.0081V17.7962H27.4964C29.3779 17.7962 30.4731 16.7599 30.4731 14.9752C30.4731 13.3056 29.3779 12.2981 27.4964 12.2981ZM41.1722 14.0828L39.7681 17.7098L38.364 14.0828H36.6791L38.9257 19.9263L38.0551 22.1428H39.7681L42.8571 14.0828H41.1722ZM33.871 14.054C32.8881 14.054 32.1299 14.2843 31.2874 14.7161L31.7929 15.8675C32.3826 15.5221 32.9723 15.3494 33.5059 15.3494C34.2922 15.3494 34.6853 15.6948 34.6853 16.3281V16.4433H33.1128C31.7087 16.4433 30.9505 17.1053 30.9505 18.1992C30.9505 19.2643 31.6806 20.0127 32.9162 20.0127C33.7025 20.0127 34.2641 19.7248 34.7134 19.2355V19.8688H36.3141V16.069C36.2579 14.8313 35.3874 14.054 33.871 14.054ZM34.8257 17.9689C34.6573 18.4583 34.1799 18.8613 33.5059 18.8613C32.9443 18.8613 32.6073 18.5734 32.6073 18.1128C32.6073 17.6523 32.9162 17.4508 33.534 17.4508H34.8257V17.9689ZM20.9814 18.6598C20.1951 18.6598 19.6335 18.0265 19.6335 17.0765C19.6335 16.1554 20.1951 15.5221 20.9814 15.5221C21.543 15.5221 21.9643 15.7524 22.2732 16.1554L23.3684 15.3494C22.8629 14.5722 21.9924 14.1116 20.8972 14.1116C19.1842 14.0828 18.0047 15.2918 18.0047 17.0765C18.0047 18.8613 19.1842 20.0415 20.8972 20.0415C22.0766 20.0415 22.9471 19.5521 23.4245 18.7461L22.3013 17.9689C22.0204 18.4295 21.5711 18.6598 20.9814 18.6598Z" fill="white"/>
</g>
<defs>
<clipPath id="clip0_342_641">
<rect width="34.8214" height="11.5143" fill="white" transform="translate(8.03571 10.6285)"/>
</clipPath>
</defs>
</svg>
