<svg width="50" height="31" viewBox="0 0 50 31" fill="none" xmlns="http://www.w3.org/2000/svg">
<rect width="50" height="31" rx="3" fill="#F9F9F9"/>
<path d="M14.8739 20.2469H12.8012C12.6594 20.2469 12.5387 20.3468 12.5166 20.4824L11.6783 25.6313C11.6617 25.7328 11.7429 25.8244 11.8493 25.8244H12.8388C12.9806 25.8244 13.1012 25.7246 13.1234 25.5887L13.3494 24.2C13.3713 24.064 13.4922 23.9642 13.6337 23.9642H14.2899C15.6552 23.9642 16.4432 23.3242 16.649 22.0558C16.7417 21.5009 16.6529 21.0649 16.3847 20.7596C16.0901 20.4243 15.5676 20.2469 14.8739 20.2469ZM15.113 22.1274C14.9997 22.8479 14.4314 22.8479 13.8819 22.8479H13.5692L13.7886 21.5024C13.8016 21.421 13.8744 21.3612 13.9592 21.3612H14.1026C14.4769 21.3612 14.8299 21.3612 15.0124 21.5678C15.1212 21.6912 15.1545 21.8744 15.113 22.1274Z" fill="#253B80"/>
<path d="M21.0696 22.1036H20.077C19.9925 22.1036 19.9194 22.1635 19.9064 22.2448L19.8625 22.5138L19.7931 22.4163C19.5782 22.1142 19.099 22.0132 18.6208 22.0132C17.524 22.0132 16.5872 22.8179 16.4048 23.9468C16.3099 24.5099 16.4448 25.0484 16.7745 25.4239C17.077 25.7692 17.5097 25.9131 18.0247 25.9131C18.9084 25.9131 19.3985 25.3626 19.3985 25.3626L19.3542 25.6297C19.3376 25.7319 19.4188 25.8235 19.5245 25.8235H20.4186C20.5607 25.8235 20.6808 25.7237 20.7032 25.5877L21.2396 22.2968C21.2566 22.1955 21.1757 22.1036 21.0696 22.1036ZM19.6861 23.975C19.5903 24.5243 19.1403 24.8931 18.5662 24.8931C18.278 24.8931 18.0477 24.8035 17.8998 24.6338C17.7531 24.4653 17.6973 24.2254 17.744 23.9583C17.8334 23.4136 18.2911 23.0329 18.8563 23.0329C19.1381 23.0329 19.3673 23.1236 19.5182 23.2947C19.6694 23.4677 19.7294 23.709 19.6861 23.975Z" fill="#253B80"/>
<path d="M26.3557 22.1036H25.3583C25.2631 22.1036 25.1737 22.1494 25.1198 22.2261L23.7441 24.1891L23.161 22.3027C23.1244 22.1847 23.0119 22.1036 22.8846 22.1036H21.9045C21.7854 22.1036 21.7027 22.2164 21.7405 22.325L22.8392 25.4483L21.8063 26.8608C21.7251 26.9721 21.8069 27.1251 21.9472 27.1251H22.9434C23.038 27.1251 23.1265 27.0804 23.1801 27.0053L26.4975 22.3664C26.5769 22.2554 26.4954 22.1036 26.3557 22.1036Z" fill="#253B80"/>
<path d="M29.6578 20.2463H27.5848C27.4433 20.2463 27.3227 20.3462 27.3005 20.4818L26.4623 25.6306C26.4456 25.7322 26.5268 25.8238 26.6326 25.8238H27.6964C27.7952 25.8238 27.8797 25.7539 27.8952 25.6588L28.1331 24.1993C28.1549 24.0634 28.2758 23.9636 28.4174 23.9636H29.0732C30.4388 23.9636 31.2265 23.3235 31.4326 22.0552C31.5256 21.5003 31.4362 21.0643 31.168 20.759C30.8737 20.4237 30.3515 20.2463 29.6578 20.2463ZM29.8969 22.1268C29.7839 22.8473 29.2156 22.8473 28.6659 22.8473H28.3534L28.5731 21.5018C28.5862 21.4204 28.6583 21.3605 28.7435 21.3605H28.8868C29.2608 21.3605 29.6142 21.3605 29.7966 21.5672C29.9054 21.6905 29.9385 21.8738 29.8969 22.1268Z" fill="#179BD7"/>
<path d="M35.8533 22.1036H34.8613C34.7762 22.1036 34.7037 22.1635 34.691 22.2448L34.6471 22.5138L34.5773 22.4163C34.3625 22.1142 33.8836 22.0132 33.4054 22.0132C32.3086 22.0132 31.3721 22.8179 31.1896 23.9468C31.0951 24.5099 31.2293 25.0484 31.5591 25.4239C31.8622 25.7692 32.2943 25.9131 32.8092 25.9131C33.693 25.9131 34.1831 25.3626 34.1831 25.3626L34.1388 25.6297C34.1221 25.7319 34.2034 25.8235 34.3097 25.8235H35.2035C35.345 25.8235 35.4656 25.7237 35.4878 25.5877L36.0245 22.2968C36.0409 22.1955 35.9596 22.1036 35.8533 22.1036ZM34.4698 23.975C34.3746 24.5243 33.9239 24.8931 33.3499 24.8931C33.0623 24.8931 32.8314 24.8035 32.6835 24.6338C32.5368 24.4653 32.4816 24.2254 32.5277 23.9583C32.6177 23.4136 33.0747 23.0329 33.64 23.0329C33.9218 23.0329 34.1509 23.1236 34.3019 23.2947C34.4537 23.4677 34.5137 23.709 34.4698 23.975Z" fill="#179BD7"/>
<path d="M37.0234 20.3875L36.1727 25.6306C36.156 25.7322 36.2373 25.8238 36.343 25.8238H37.1983C37.3404 25.8238 37.4611 25.7239 37.4829 25.588L38.3218 20.4395C38.3384 20.3379 38.2572 20.246 38.1514 20.246H37.1937C37.1092 20.2463 37.0365 20.3062 37.0234 20.3875Z" fill="#179BD7"/>
<path d="M23.0687 16.4861L23.3022 15.0491L22.782 15.0374H20.298L22.0242 4.4338C22.0296 4.40179 22.047 4.37194 22.0725 4.35075C22.0979 4.32955 22.1305 4.31787 22.1644 4.31787H26.3528C27.7433 4.31787 28.7029 4.59818 29.2039 5.15143C29.4388 5.41098 29.5884 5.6822 29.6607 5.98067C29.7366 6.29385 29.7379 6.66803 29.6638 7.12439L29.6585 7.1577V7.45011L29.8933 7.57902C30.0911 7.68067 30.2483 7.79703 30.3689 7.93027C30.5698 8.15217 30.6998 8.43421 30.7547 8.76859C30.8114 9.11248 30.7926 9.52169 30.6998 9.98498C30.5926 10.5179 30.4193 10.9821 30.1854 11.3618C29.9701 11.7118 29.696 12.0021 29.3705 12.227C29.0597 12.4407 28.6904 12.6029 28.2729 12.7067C27.8684 12.8088 27.4071 12.8603 26.9012 12.8603H26.5752C26.3421 12.8603 26.1157 12.9416 25.938 13.0874C25.7599 13.2362 25.642 13.4395 25.6058 13.6618L25.5813 13.7912L25.1687 16.3239L25.1499 16.4169C25.145 16.4463 25.1365 16.461 25.124 16.4709C25.1128 16.48 25.0968 16.4861 25.0811 16.4861H23.0687Z" fill="#253B80"/>
<path d="M30.1155 7.19141C30.103 7.26884 30.0887 7.348 30.0727 7.42932C29.5203 10.1766 27.6306 11.1256 25.2172 11.1256H23.9883C23.6932 11.1256 23.4445 11.3333 23.3985 11.6153L22.7693 15.4808L22.5912 16.5765C22.5612 16.7616 22.7086 16.9286 22.9015 16.9286H25.081C25.3391 16.9286 25.5583 16.7469 25.5989 16.5003L25.6204 16.393L26.0307 13.8703L26.0571 13.7319C26.0973 13.4844 26.3169 13.3028 26.575 13.3028H26.901C29.0126 13.3028 30.6656 12.4722 31.1488 10.0689C31.3506 9.06487 31.2461 8.22655 30.7121 7.63695C30.5504 7.45917 30.35 7.31166 30.1155 7.19141Z" fill="#179BD7"/>
<path d="M29.5378 6.96818C29.4534 6.94439 29.3664 6.92276 29.2771 6.9033C29.1873 6.88427 29.0953 6.8674 29.0007 6.85269C28.6693 6.80078 28.3063 6.77612 27.9174 6.77612H24.6345C24.5537 6.77612 24.4769 6.79386 24.4082 6.82587C24.2568 6.89638 24.1443 7.03523 24.117 7.20523L23.4187 11.4903L23.3986 11.6153C23.4446 11.3333 23.6933 11.1256 23.9884 11.1256H25.2173C27.6307 11.1256 29.5204 10.1761 30.0728 7.4293C30.0893 7.34798 30.1031 7.26882 30.1156 7.19139C29.9759 7.11958 29.8245 7.05816 29.6615 7.00582C29.6213 6.99284 29.5798 6.9803 29.5378 6.96818Z" fill="#222D65"/>
<path d="M24.117 7.20536C24.1442 7.03536 24.2567 6.8965 24.4081 6.82643C24.4773 6.79442 24.5537 6.77668 24.6345 6.77668H27.9173C28.3063 6.77668 28.6693 6.80134 29.0006 6.85325C29.0953 6.86796 29.1873 6.88483 29.277 6.90386C29.3663 6.92332 29.4534 6.94495 29.5378 6.96874C29.5798 6.98086 29.6213 6.9934 29.6619 7.00595C29.8249 7.05829 29.9763 7.12014 30.116 7.19152C30.2803 6.17628 30.1147 5.48503 29.5481 4.8591C28.9234 4.17001 27.7959 3.875 26.3532 3.875H22.1648C21.8701 3.875 21.6187 4.08263 21.5731 4.3651L19.8286 15.0777C19.7942 15.2897 19.963 15.4809 20.1835 15.4809H22.7694L23.4186 11.4904L24.117 7.20536Z" fill="#253B80"/>
</svg>
