<svg width="69" height="24" viewBox="0 0 69 24" fill="none" xmlns="http://www.w3.org/2000/svg">
<path d="M27.6537 22.4209V8.76061C27.6537 6.24722 29.6913 4.20976 32.2047 4.20976L36.2379 4.21571C38.7441 4.22072 40.7731 6.2538 40.7731 8.75999V11.6677C40.7731 14.1811 38.7355 16.2187 36.2222 16.2187H30.5229" stroke="#939598" stroke-width="3" stroke-miterlimit="10" stroke-linecap="round" stroke-linejoin="round"/>
<path d="M41.9004 4.20874H43.6499C44.6815 4.20874 45.5175 5.04494 45.5175 6.07645V16.2808" stroke="#939598" stroke-width="3" stroke-miterlimit="10" stroke-linecap="round" stroke-linejoin="round"/>
<path d="M45.1423 2.62919L44.3489 1.83569C44.152 1.6389 44.152 1.31967 44.3489 1.12278L45.1419 0.329905C45.339 0.132704 45.6586 0.132704 45.8557 0.329905L46.6487 1.12278C46.8456 1.31967 46.8456 1.6389 46.6487 1.83569L45.8553 2.62919C45.6584 2.82608 45.3392 2.82608 45.1423 2.62919Z" fill="#32BCAD"/>
<path d="M48.874 4.19941H50.6091C51.5016 4.19941 52.3577 4.55393 52.9887 5.1851L57.047 9.24332C57.5728 9.76915 58.425 9.76915 58.9508 9.24332L62.9943 5.19992C63.6253 4.56886 64.4814 4.21433 65.3739 4.21433H66.7845" stroke="#939598" stroke-width="3" stroke-miterlimit="10" stroke-linecap="round" stroke-linejoin="round"/>
<path d="M48.874 16.1919H50.6091C51.5016 16.1919 52.3577 15.8374 52.9887 15.2062L57.047 11.1479C57.5728 10.6222 58.425 10.6222 58.9508 11.1479L62.9943 15.1913C63.6253 15.8224 64.4814 16.177 65.3739 16.177H66.7845" stroke="#939598" stroke-width="3" stroke-miterlimit="10" stroke-linecap="round" stroke-linejoin="round"/>
<path d="M17.3094 18.784C16.4385 18.784 15.6195 18.4449 15.0038 17.8294L11.6747 14.5004C11.4411 14.266 11.0336 14.2667 10.8 14.5004L7.45873 17.8416C6.84291 18.457 6.02394 18.7961 5.15308 18.7961H4.49707L8.71334 23.0125C10.0302 24.3292 12.1651 24.3292 13.482 23.0125L17.7104 18.784H17.3094Z" fill="#32BCAD"/>
<path d="M5.1531 7.00906C6.02396 7.00906 6.84293 7.34824 7.45864 7.96375L10.7999 11.3055C11.0405 11.5461 11.4335 11.5472 11.6747 11.3052L15.0037 7.97586C15.6196 7.36035 16.4385 7.02128 17.3094 7.02128H17.7104L13.482 2.7929C12.1651 1.47607 10.0302 1.47607 8.71336 2.7929L4.49719 7.00906H5.1531Z" fill="#32BCAD"/>
<path d="M21.2078 10.5182L18.6526 7.9629C18.5963 7.98545 18.5354 7.99954 18.4711 7.99954H17.3094C16.7088 7.99954 16.1208 8.24309 15.6964 8.66777L12.3673 11.9969C12.0559 12.3084 11.6466 12.4644 11.2376 12.4644C10.8282 12.4644 10.4192 12.3084 10.1077 11.9972L6.76615 8.65566C6.34168 8.23098 5.75384 7.98743 5.15315 7.98743H3.72462C3.66376 7.98743 3.60676 7.97303 3.553 7.95277L0.987621 10.5182C-0.329207 11.8349 -0.329207 13.9698 0.987621 15.2868L3.5529 17.8521C3.60666 17.8318 3.66376 17.8174 3.72462 17.8174H5.15315C5.75384 17.8174 6.34168 17.5738 6.76615 17.1492L10.1074 13.8079C10.7113 13.2045 11.764 13.2042 12.3673 13.8082L15.6964 17.137C16.1208 17.5617 16.7088 17.8053 17.3094 17.8053H18.4711C18.5355 17.8053 18.5963 17.8193 18.6527 17.8418L21.2078 15.2868C22.5247 13.9698 22.5247 11.8349 21.2078 10.5182Z" fill="#32BCAD"/>
<path d="M31.1221 21.2598C30.9335 21.2598 30.714 21.3051 30.497 21.3551V22.1876C30.6474 22.2426 30.819 22.2689 30.9838 22.2689C31.4011 22.2689 31.5992 22.1281 31.5992 21.7606C31.5992 21.4147 31.4369 21.2598 31.1221 21.2598ZM30.3561 22.8057V21.1595H30.4707L30.4827 21.2312C30.6759 21.1858 30.943 21.1262 31.1339 21.1262C31.2891 21.1262 31.4369 21.1498 31.5609 21.2501C31.7042 21.3671 31.7495 21.5554 31.7495 21.7606C31.7495 21.9754 31.6779 22.1783 31.4823 22.2903C31.3462 22.3666 31.1626 22.3976 30.998 22.3976C30.8285 22.3976 30.6664 22.3712 30.497 22.3213V22.8057H30.3561Z" fill="#939598"/>
<path d="M32.7975 21.2561C32.3799 21.2561 32.1939 21.3874 32.1939 21.7548C32.1939 22.1103 32.3776 22.2702 32.7975 22.2702C33.2126 22.2702 33.3987 22.1413 33.3987 21.7738C33.3987 21.4185 33.2151 21.2561 32.7975 21.2561ZM33.3342 22.2702C33.1959 22.3702 33.0098 22.3989 32.7975 22.3989C32.5805 22.3989 32.3943 22.3678 32.2582 22.2702C32.1056 22.1629 32.0436 21.9862 32.0436 21.7644C32.0436 21.5449 32.1056 21.3662 32.2582 21.2561C32.3943 21.1584 32.5805 21.1275 32.7975 21.1275C33.0122 21.1275 33.1959 21.1584 33.3342 21.2561C33.4894 21.3662 33.5489 21.5449 33.5489 21.7619C33.5489 21.9839 33.4869 22.1629 33.3342 22.2702Z" fill="#939598"/>
<path d="M35.3106 22.3652L34.8453 21.3658H34.8357L34.3776 22.3652H34.2513L33.7551 21.1604H33.91L34.3228 22.1718H34.3324L34.7809 21.1604H34.9097L35.3701 22.1718H35.3798L35.783 21.1604H35.9332L35.4369 22.3652H35.3106Z" fill="#939598"/>
<path d="M36.833 21.2537C36.4465 21.2537 36.3153 21.4254 36.2914 21.6737H37.3745C37.3627 21.3994 37.2219 21.2537 36.833 21.2537ZM36.8283 22.3989C36.5968 22.3989 36.4465 22.3655 36.3272 22.2651C36.1864 22.1435 36.1388 21.9671 36.1388 21.7644C36.1388 21.5711 36.2032 21.366 36.3631 21.249C36.4967 21.156 36.6613 21.1274 36.833 21.1274C36.9881 21.1274 37.1671 21.144 37.3149 21.2443C37.489 21.361 37.5225 21.5664 37.5225 21.8H36.2867C36.2914 22.0482 36.3726 22.2678 36.8401 22.2678C37.0621 22.2678 37.2696 22.2318 37.4629 22.1985V22.3249C37.2624 22.3608 37.0405 22.3989 36.8283 22.3989Z" fill="#939598"/>
<path d="M37.9265 22.3652V21.1604H38.041L38.053 21.2321C38.3082 21.1676 38.4276 21.1271 38.6517 21.1271H38.6686V21.2607H38.6351C38.4466 21.2607 38.3322 21.2867 38.0673 21.3561V22.3652H37.9265Z" fill="#939598"/>
<path d="M39.486 21.2537C39.0995 21.2537 38.9683 21.4254 38.9444 21.6737H40.0275C40.0157 21.3994 39.8748 21.2537 39.486 21.2537ZM39.4813 22.3989C39.2497 22.3989 39.0995 22.3655 38.9802 22.2651C38.8394 22.1435 38.7917 21.9671 38.7917 21.7644C38.7917 21.5711 38.8562 21.366 39.0161 21.249C39.1496 21.156 39.3142 21.1274 39.486 21.1274C39.6411 21.1274 39.82 21.144 39.9678 21.2443C40.142 21.361 40.1755 21.5664 40.1755 21.8H38.9397C38.9444 22.0482 39.0256 22.2678 39.4931 22.2678C39.715 22.2678 39.9225 22.2318 40.1159 22.1985V22.3249C39.9153 22.3608 39.6935 22.3989 39.4813 22.3989Z" fill="#939598"/>
<path d="M41.7175 21.3375C41.5673 21.2824 41.3954 21.2561 41.2309 21.2561C40.8133 21.2561 40.6153 21.3971 40.6153 21.7644C40.6153 22.1126 40.7775 22.2652 41.0924 22.2652C41.2809 22.2652 41.5005 22.2199 41.7175 22.1722V21.3375ZM41.7438 22.3656L41.7318 22.2939C41.5387 22.3392 41.2714 22.3989 41.0806 22.3989C40.9256 22.3989 40.7775 22.3775 40.6535 22.2748C40.5104 22.1578 40.465 21.9696 40.465 21.7644C40.465 21.5498 40.5366 21.3467 40.7322 21.237C40.8682 21.1584 41.0519 21.1274 41.2189 21.1274C41.3859 21.1274 41.5481 21.1561 41.7175 21.2037V20.6526H41.8583V22.3656H41.7438Z" fill="#939598"/>
<path d="M43.9222 21.2611C43.7336 21.2611 43.5141 21.3064 43.2971 21.3564V22.1866C43.4498 22.2439 43.6191 22.2702 43.7839 22.2702C44.2012 22.2702 44.3993 22.1295 44.3993 21.7619C44.3993 21.4161 44.237 21.2611 43.9222 21.2611ZM44.2823 22.2916C44.1463 22.3679 43.9627 22.3989 43.7981 22.3989C43.6191 22.3989 43.4403 22.3679 43.2589 22.3082L43.2518 22.3656H43.1562V20.6527H43.2971V21.2275C43.4903 21.1848 43.7503 21.1275 43.934 21.1275C44.0892 21.1275 44.237 21.1511 44.361 21.2514C44.5043 21.3685 44.5496 21.5568 44.5496 21.7619C44.5496 21.9768 44.4779 22.1796 44.2823 22.2916Z" fill="#939598"/>
<path d="M44.7363 22.8269V22.6958C44.8055 22.7029 44.87 22.7079 44.9153 22.7079C45.0894 22.7079 45.1943 22.6575 45.2922 22.4595L45.3375 22.3642L44.7078 21.1594H44.87L45.4092 22.1995H45.4187L45.9316 21.1594H46.0914L45.4139 22.5121C45.2899 22.7579 45.1561 22.8389 44.9104 22.8389C44.8556 22.8389 44.796 22.8342 44.7363 22.8269Z" fill="#939598"/>
<path d="M48.0315 21.6781H47.5639V22.1005H48.0338C48.3559 22.1005 48.4775 22.0645 48.4775 21.8882C48.4775 21.6994 48.3106 21.6781 48.0315 21.6781ZM47.9456 20.9933H47.5639V21.4228H47.948C48.2653 21.4228 48.3917 21.3847 48.3917 21.2057C48.3917 21.015 48.2318 20.9933 47.9456 20.9933ZM48.6709 22.2508C48.4991 22.3605 48.2915 22.3652 47.9121 22.3652H47.1989V20.731H47.8955C48.2223 20.731 48.4227 20.7357 48.5897 20.8361C48.709 20.9077 48.7567 21.0174 48.7567 21.1604C48.7567 21.3321 48.6852 21.4467 48.4991 21.5231V21.5324C48.709 21.5804 48.845 21.6878 48.845 21.9192C48.845 22.0765 48.7877 22.1792 48.6709 22.2508Z" fill="#939598"/>
<path d="M50.2721 21.8598C50.1313 21.8478 49.9883 21.8407 49.8379 21.8407C49.5922 21.8407 49.5063 21.8908 49.5063 22.0029C49.5063 22.1079 49.5779 22.1652 49.7662 22.1652C49.9238 22.1652 50.1123 22.1295 50.2721 22.0935V21.8598ZM50.3436 22.3656L50.3341 22.2939C50.129 22.3442 49.8905 22.3989 49.6804 22.3989C49.5516 22.3989 49.4132 22.3822 49.3153 22.3105C49.2248 22.2462 49.1818 22.1412 49.1818 22.0195C49.1818 21.8835 49.2415 21.7572 49.3846 21.6928C49.5111 21.6331 49.6804 21.6284 49.8355 21.6284C49.962 21.6284 50.1313 21.6355 50.2721 21.6451V21.6235C50.2721 21.4352 50.148 21.3732 49.8092 21.3732C49.6781 21.3732 49.5182 21.38 49.3656 21.3944V21.1511C49.5349 21.137 49.7257 21.1274 49.8833 21.1274C50.0932 21.1274 50.3103 21.1441 50.4438 21.2394C50.5822 21.3374 50.6085 21.4735 50.6085 21.6522V22.3656H50.3436Z" fill="#939598"/>
<path d="M52.1814 22.3652V21.6994C52.1814 21.4801 52.0694 21.4015 51.8689 21.4015C51.7211 21.4015 51.535 21.4395 51.3775 21.4778V22.3652H51.0411V21.1604H51.3155L51.3273 21.2366C51.5397 21.182 51.7759 21.1271 51.9716 21.1271C52.1194 21.1271 52.2698 21.1484 52.3843 21.251C52.4796 21.3371 52.5155 21.4561 52.5155 21.628V22.3652H52.1814Z" fill="#939598"/>
<path d="M53.466 22.3989C53.3109 22.3989 53.1414 22.3775 53.0174 22.2725C52.8695 22.1532 52.8265 21.9649 52.8265 21.7618C52.8265 21.5711 52.8885 21.3634 53.0723 21.2467C53.2225 21.1487 53.4086 21.1274 53.602 21.1274C53.7403 21.1274 53.8763 21.137 54.0265 21.1511V21.4089C53.9048 21.3971 53.7593 21.3875 53.6425 21.3875C53.3227 21.3875 53.1724 21.4877 53.1724 21.7644C53.1724 22.0245 53.2846 22.1365 53.547 22.1365C53.6996 22.1365 53.8786 22.1079 54.0529 22.0746V22.3226C53.8643 22.3609 53.6592 22.3989 53.466 22.3989Z" fill="#939598"/>
<path d="M55.0464 21.38C54.7266 21.38 54.5858 21.4805 54.5858 21.7548C54.5858 22.0292 54.7242 22.1462 55.0464 22.1462C55.3636 22.1462 55.5019 22.0482 55.5019 21.7737C55.5019 21.4995 55.3661 21.38 55.0464 21.38ZM55.6237 22.2725C55.4757 22.3725 55.2826 22.3989 55.0464 22.3989C54.8053 22.3989 54.6122 22.3701 54.4667 22.2725C54.2996 22.1628 54.2399 21.9815 54.2399 21.7644C54.2399 21.5472 54.2996 21.3634 54.4667 21.2537C54.6122 21.156 54.8053 21.1274 55.0464 21.1274C55.2849 21.1274 55.4757 21.156 55.6237 21.2537C55.7906 21.3634 55.848 21.5472 55.848 21.7618C55.848 21.979 55.7883 22.1628 55.6237 22.2725Z" fill="#939598"/>
<path d="M57.79 22.3989C57.5874 22.3989 57.3679 22.3656 57.2031 22.2295C57.0076 22.0672 56.948 21.8168 56.948 21.5472C56.948 21.3063 57.0243 21.0201 57.2795 20.853C57.4775 20.7243 57.7232 20.698 57.9714 20.698C58.1528 20.698 58.3387 20.7099 58.5417 20.7266V21.0201C58.3675 21.0057 58.1528 20.9937 57.9858 20.9937C57.5205 20.9937 57.3225 21.1703 57.3225 21.5472C57.3225 21.9315 57.5062 22.1032 57.8498 22.1032C58.0739 22.1032 58.3244 22.0578 58.5774 22.0053V22.2963C58.3244 22.3465 58.0596 22.3989 57.79 22.3989Z" fill="#939598"/>
<path d="M59.5658 21.342C59.2866 21.342 59.1792 21.4425 59.1577 21.6261H59.9689C59.9593 21.4305 59.8448 21.342 59.5658 21.342ZM59.5156 22.3989C59.3176 22.3989 59.1387 22.3751 59.0051 22.2652C58.862 22.1462 58.8118 21.9672 58.8118 21.7618C58.8118 21.5782 58.8715 21.3732 59.0386 21.2537C59.1864 21.1487 59.3749 21.1274 59.5658 21.1274C59.7375 21.1274 59.9403 21.1464 60.0881 21.249C60.2815 21.3851 60.2982 21.5951 60.3006 21.8431H59.1554C59.1626 22.0269 59.2604 22.1462 59.5991 22.1462C59.8091 22.1462 60.0428 22.1152 60.2409 22.0841V22.3202C60.0094 22.3585 59.7566 22.3989 59.5156 22.3989Z" fill="#939598"/>
<path d="M61.7972 22.3652V21.6994C61.7972 21.4801 61.6851 21.4015 61.4846 21.4015C61.3368 21.4015 61.1507 21.4395 60.9932 21.4778V22.3652H60.6569V21.1604H60.9312L60.9431 21.2366C61.1554 21.182 61.3916 21.1271 61.5873 21.1271C61.7351 21.1271 61.8855 21.1484 62 21.251C62.0954 21.3371 62.1312 21.4561 62.1312 21.628V22.3652H61.7972Z" fill="#939598"/>
<path d="M63.0886 22.3989C62.9264 22.3989 62.7784 22.3535 62.6974 22.2271C62.6378 22.1412 62.6091 22.0245 62.6091 21.8621V21.4112H62.3657V21.1608H62.6091L62.645 20.7958H62.9431V21.1608H63.4178V21.4112H62.9431V21.7978C62.9431 21.8908 62.9502 21.9696 62.9764 22.0269C63.0123 22.1079 63.0909 22.1389 63.196 22.1389C63.2747 22.1389 63.3702 22.1269 63.4368 22.1152V22.3559C63.3272 22.3775 63.2007 22.3989 63.0886 22.3989Z" fill="#939598"/>
<path d="M63.746 22.3652V21.1604H64.0203L64.0323 21.2366C64.2543 21.1747 64.4187 21.1271 64.6287 21.1271C64.6382 21.1271 64.6526 21.1271 64.6716 21.1293V21.4157C64.6334 21.4134 64.5881 21.4134 64.5548 21.4134C64.3901 21.4134 64.2661 21.4324 64.0823 21.4755V22.3652H63.746Z" fill="#939598"/>
<path d="M65.8946 21.8598C65.7538 21.8478 65.6108 21.8407 65.4603 21.8407C65.2147 21.8407 65.1287 21.8908 65.1287 22.0029C65.1287 22.1079 65.2004 22.1652 65.3887 22.1652C65.5463 22.1652 65.7348 22.1295 65.8946 22.0935V21.8598ZM65.9661 22.3656L65.9566 22.2939C65.7514 22.3442 65.5128 22.3989 65.3029 22.3989C65.1741 22.3989 65.0357 22.3822 64.9378 22.3105C64.8473 22.2462 64.8043 22.1412 64.8043 22.0195C64.8043 21.8835 64.8639 21.7572 65.0071 21.6928C65.1335 21.6331 65.3029 21.6284 65.458 21.6284C65.5844 21.6284 65.7538 21.6355 65.8946 21.6451V21.6235C65.8946 21.4352 65.7705 21.3732 65.4317 21.3732C65.3005 21.3732 65.1407 21.38 64.988 21.3944V21.1511C65.1574 21.137 65.3482 21.1274 65.5057 21.1274C65.7156 21.1274 65.9328 21.1441 66.0663 21.2394C66.2047 21.3374 66.231 21.4735 66.231 21.6522V22.3656H65.9661Z" fill="#939598"/>
<path d="M66.6636 20.6523H67V22.3652H66.6636V20.6523Z" fill="#939598"/>
</svg>
