<svg width="50" height="31" viewBox="0 0 50 31" fill="none" xmlns="http://www.w3.org/2000/svg">
<rect width="50" height="31" rx="3" fill="#0F3560"/>
<path d="M29.3632 23.1187H20.614V7.88623H29.3632V23.1187Z" fill="#FF5F00"/>
<path d="M21.1745 15.5013C21.1745 12.4114 22.6679 9.65891 24.9936 7.88512C23.2929 6.58803 21.1465 5.81384 18.8139 5.81384C13.2916 5.81384 8.81519 10.151 8.81519 15.5013C8.81519 20.8517 13.2916 25.1888 18.8139 25.1888C21.1465 25.1888 23.2929 24.4147 24.9936 23.1176C22.6679 21.3438 21.1745 18.5913 21.1745 15.5013Z" fill="#EB001B"/>
<path d="M41.1631 15.5013C41.1631 20.8517 36.6867 25.1888 31.1644 25.1888C28.8317 25.1888 26.6854 24.4147 24.9841 23.1176C27.3103 21.3438 28.8038 18.5913 28.8038 15.5013C28.8038 12.4114 27.3103 9.65891 24.9841 7.88512C26.6854 6.58803 28.8317 5.81384 31.1644 5.81384C36.6867 5.81384 41.1631 10.151 41.1631 15.5013Z" fill="#F79E1B"/>
<path d="M16.3392 15.5625C16.3392 15.1394 16.6254 14.7918 17.0932 14.7918C17.5401 14.7918 17.8418 15.1244 17.8418 15.5625C17.8418 16.0007 17.5401 16.3333 17.0932 16.3333C16.6254 16.3333 16.3392 15.9857 16.3392 15.5625ZM18.3512 15.5625V14.3588H17.8108V14.6511C17.6395 14.4343 17.3794 14.2983 17.0259 14.2983C16.3291 14.2983 15.7828 14.8275 15.7828 15.5625C15.7828 16.2981 16.3291 16.8268 17.0259 16.8268C17.3794 16.8268 17.6395 16.6907 17.8108 16.474V16.7663H18.3512V15.5625ZM36.611 15.5625C36.611 15.1394 36.8972 14.7918 37.365 14.7918C37.8125 14.7918 38.1136 15.1244 38.1136 15.5625C38.1136 16.0007 37.8125 16.3333 37.365 16.3333C36.8972 16.3333 36.611 15.9857 36.611 15.5625ZM38.6236 15.5625V13.392H38.0826V14.6511C37.9112 14.4343 37.6512 14.2983 37.2977 14.2983C36.6009 14.2983 36.0546 14.8275 36.0546 15.5625C36.0546 16.2981 36.6009 16.8268 37.2977 16.8268C37.6512 16.8268 37.9112 16.6907 38.0826 16.474V16.7663H38.6236V15.5625ZM25.0585 14.767C25.4066 14.767 25.6303 14.9785 25.6875 15.351H24.3979C24.4556 15.0033 24.6734 14.767 25.0585 14.767ZM25.0692 14.2983C24.3408 14.2983 23.8314 14.8119 23.8314 15.5625C23.8314 16.3281 24.3616 16.8268 25.1055 16.8268C25.4798 16.8268 25.8226 16.7363 26.1243 16.4895L25.8595 16.1016C25.6512 16.2624 25.3858 16.3535 25.1364 16.3535C24.7883 16.3535 24.4711 16.1972 24.3931 15.7637H26.2385C26.2439 15.6986 26.2492 15.6329 26.2492 15.5625C26.2439 14.8119 25.7654 14.2983 25.0692 14.2983ZM31.5938 15.5625C31.5938 15.1394 31.88 14.7918 32.3477 14.7918C32.7947 14.7918 33.0964 15.1244 33.0964 15.5625C33.0964 16.0007 32.7947 16.3333 32.3477 16.3333C31.88 16.3333 31.5938 15.9857 31.5938 15.5625ZM33.6058 15.5625V14.3588H33.0654V14.6511C32.8934 14.4343 32.634 14.2983 32.2805 14.2983C31.5836 14.2983 31.0373 14.8275 31.0373 15.5625C31.0373 16.2981 31.5836 16.8268 32.2805 16.8268C32.634 16.8268 32.8934 16.6907 33.0654 16.474V16.7663H33.6058V15.5625ZM28.5421 15.5625C28.5421 16.2929 29.067 16.8268 29.868 16.8268C30.2423 16.8268 30.4916 16.7461 30.7618 16.5397L30.5024 16.1165C30.2994 16.2578 30.0864 16.3333 29.8519 16.3333C29.4205 16.3281 29.1033 16.026 29.1033 15.5625C29.1033 15.099 29.4205 14.7969 29.8519 14.7918C30.0864 14.7918 30.2994 14.8673 30.5024 15.0085L30.7618 14.5854C30.4916 14.379 30.2423 14.2983 29.868 14.2983C29.067 14.2983 28.5421 14.8321 28.5421 15.5625ZM35.5089 14.2983C35.197 14.2983 34.9941 14.4395 34.8537 14.6511V14.3588H34.3181V16.7663H34.859V15.4167C34.859 15.0183 35.0358 14.7969 35.3892 14.7969C35.4987 14.7969 35.613 14.8119 35.7273 14.8575L35.8939 14.364C35.7743 14.3185 35.6184 14.2983 35.5089 14.2983ZM21.0237 14.5502C20.7637 14.3842 20.4054 14.2983 20.0103 14.2983C19.3807 14.2983 18.9754 14.5906 18.9754 15.069C18.9754 15.4616 19.2771 15.7038 19.833 15.7793L20.0883 15.8145C20.3846 15.8548 20.5245 15.9303 20.5245 16.0664C20.5245 16.2526 20.3269 16.3587 19.9579 16.3587C19.5836 16.3587 19.3134 16.2428 19.1313 16.1067L18.8766 16.5143C19.173 16.7259 19.5473 16.8268 19.9526 16.8268C20.6703 16.8268 21.0862 16.4993 21.0862 16.041C21.0862 15.6179 20.7589 15.3965 20.218 15.321L19.9633 15.2852C19.7294 15.2553 19.542 15.2103 19.542 15.0489C19.542 14.8725 19.7187 14.767 20.0151 14.767C20.3322 14.767 20.6393 14.8828 20.7899 14.9734L21.0237 14.5502ZM27.9958 14.2983C27.684 14.2983 27.4811 14.4395 27.3412 14.6511V14.3588H26.8056V16.7663H27.346V15.4167C27.346 15.0183 27.5227 14.7969 27.8762 14.7969C27.9857 14.7969 28.1 14.8119 28.2142 14.8575L28.3809 14.364C28.2612 14.3185 28.1053 14.2983 27.9958 14.2983ZM23.3845 14.3588H22.5008V13.6284H21.9545V14.3588H21.4504V14.8373H21.9545V15.9355C21.9545 16.4941 22.1782 16.8268 22.8173 16.8268C23.0518 16.8268 23.322 16.7564 23.4934 16.6406L23.3375 16.1921C23.1762 16.2826 22.9994 16.3281 22.859 16.3281C22.5888 16.3281 22.5008 16.1667 22.5008 15.9251V14.8373H23.3845V14.3588ZM15.3049 16.7663V15.2553C15.3049 14.6863 14.9306 14.3035 14.3272 14.2983C14.01 14.2931 13.6827 14.3888 13.4536 14.7266C13.2822 14.4597 13.012 14.2983 12.6324 14.2983C12.3669 14.2983 12.1075 14.3738 11.9046 14.6557V14.3588H11.3636V16.7663H11.9093V15.4317C11.9093 15.0137 12.1485 14.7918 12.5181 14.7918C12.8769 14.7918 13.0584 15.0183 13.0584 15.4265V16.7663H13.6047V15.4317C13.6047 15.0137 13.8541 14.7918 14.2129 14.7918C14.5819 14.7918 14.7586 15.0183 14.7586 15.4265V16.7663H15.3049Z" fill="white"/>
</svg>
