<svg width="51" height="31" viewBox="0 0 51 31" fill="none" xmlns="http://www.w3.org/2000/svg">
<rect width="51" height="31" rx="3" fill="#0069AA"/>
<path fill-rule="evenodd" clip-rule="evenodd" d="M8.57633 18.658C8.57633 18.021 8.22594 18.0629 7.89075 18.0562V17.8721C8.18139 17.8855 8.4794 17.8855 8.77081 17.8855C9.08388 17.8855 9.50893 17.8721 10.0612 17.8721C11.9924 17.8721 13.0444 19.0969 13.0444 20.3512C13.0444 21.0531 12.6118 22.8164 9.97147 22.8164C9.59142 22.8164 9.24041 22.8024 8.89001 22.8024C8.55467 22.8024 8.22594 22.8089 7.89075 22.8164V22.6321C8.33777 22.5892 8.55467 22.5753 8.57633 22.0937V18.658ZM9.30725 21.9801C9.30725 22.5257 9.71786 22.5892 10.0832 22.5892C11.6946 22.5892 12.2233 21.4349 12.2233 20.3796C12.2233 19.055 11.3285 18.0989 9.8893 18.0989C9.58283 18.0989 9.44182 18.1197 9.30725 18.1273V21.9801Z" fill="white"/>
<path fill-rule="evenodd" clip-rule="evenodd" d="M13.3055 22.6321H13.4469C13.6556 22.6321 13.8049 22.6321 13.8049 22.3978V20.4783C13.8049 20.1671 13.6933 20.1241 13.4169 19.9829V19.8698C13.7675 19.7697 14.1854 19.6361 14.2149 19.6148C14.2675 19.5863 14.3116 19.5787 14.3495 19.5787C14.3861 19.5787 14.4014 19.6213 14.4014 19.6785V22.3978C14.4014 22.6321 14.5658 22.6321 14.7749 22.6321H14.9011V22.8163C14.6475 22.8163 14.3861 22.8023 14.1185 22.8023C13.85 22.8023 13.5813 22.8089 13.3055 22.8163V22.6321ZM14.1034 18.4883C13.9091 18.4883 13.738 18.3184 13.738 18.1342C13.738 17.9568 13.9172 17.7936 14.1034 17.7936C14.297 17.7936 14.469 17.9428 14.469 18.1342C14.469 18.3258 14.3045 18.4883 14.1034 18.4883Z" fill="white"/>
<path fill-rule="evenodd" clip-rule="evenodd" d="M15.6099 20.5209C15.6099 20.2593 15.5276 20.1886 15.1776 20.0538V19.9193C15.4978 19.8202 15.8033 19.7277 16.1617 19.5787C16.1843 19.5787 16.2059 19.5929 16.2059 19.6495V20.1101C16.6317 19.8202 16.9972 19.5787 17.4977 19.5787C18.1307 19.5787 18.3544 20.018 18.3544 20.5705V22.3978C18.3544 22.6321 18.5189 22.6321 18.7275 22.6321H18.8621V22.8163C18.6002 22.8163 18.3395 22.8023 18.0713 22.8023C17.8026 22.8023 17.5339 22.8089 17.2654 22.8163V22.6321H17.4C17.6089 22.6321 17.7574 22.6321 17.7574 22.3978V20.564C17.7574 20.1597 17.4977 19.9616 17.072 19.9616C16.8331 19.9616 16.4528 20.1454 16.2059 20.3019V22.3978C16.2059 22.6321 16.3707 22.6321 16.5797 22.6321H16.7136V22.8163C16.4528 22.8163 16.1916 22.8023 15.9227 22.8023C15.6547 22.8023 15.3859 22.8089 15.1177 22.8163V22.6321H15.2523C15.4609 22.6321 15.6099 22.6321 15.6099 22.3978V20.5209Z" fill="white"/>
<path fill-rule="evenodd" clip-rule="evenodd" d="M19.4289 20.8615C19.4137 20.9252 19.4137 21.0313 19.4289 21.2723C19.4728 21.945 19.9288 22.4973 20.5248 22.4973C20.9355 22.4973 21.2564 22.2847 21.5319 22.0231L21.636 22.1223C21.2929 22.5543 20.868 22.9228 20.2569 22.9228C19.0707 22.9228 18.8321 21.8314 18.8321 21.3784C18.8321 19.9899 19.8163 19.5787 20.3378 19.5787C20.9426 19.5787 21.5919 19.94 21.5989 20.6911C21.5989 20.7341 21.5989 20.7761 21.5919 20.8187L21.5245 20.8615H19.4289ZM20.7496 20.6346C20.9356 20.6346 20.9574 20.5424 20.9574 20.457C20.9574 20.0964 20.7264 19.8059 20.3085 19.8059C19.854 19.8059 19.5406 20.1241 19.4512 20.6346H20.7496Z" fill="white"/>
<path fill-rule="evenodd" clip-rule="evenodd" d="M21.771 22.6321H21.9725C22.1805 22.6321 22.3298 22.6321 22.3298 22.3978V20.4077C22.3298 20.1886 22.0541 20.1454 21.9421 20.0888V19.9829C22.4865 19.7631 22.785 19.5787 22.8532 19.5787C22.8968 19.5787 22.9192 19.6 22.9192 19.6712V20.3088H22.9349C23.1208 20.0326 23.4346 19.5787 23.8893 19.5787C24.0757 19.5787 24.3141 19.6991 24.3141 19.9543C24.3141 20.1454 24.173 20.3162 23.9643 20.3162C23.7323 20.3162 23.7323 20.1454 23.471 20.1454C23.3444 20.1454 22.9268 20.3088 22.9268 20.7341V22.3978C22.9268 22.6321 23.0758 22.6321 23.2847 22.6321H23.7019V22.8163C23.2918 22.8089 22.9796 22.8023 22.6586 22.8023C22.3527 22.8023 22.0393 22.8089 21.771 22.8163V22.6321Z" fill="white"/>
<path fill-rule="evenodd" clip-rule="evenodd" d="M24.6419 21.8315C24.7391 22.2989 25.0368 22.6962 25.5823 22.6962C26.0217 22.6962 26.1856 22.4409 26.1856 22.1932C26.1856 21.3569 24.5602 21.6264 24.5602 20.486C24.5602 20.0889 24.896 19.579 25.7164 19.579C25.9547 19.579 26.2753 19.6432 26.5659 19.785L26.6183 20.5069H26.4469C26.3724 20.0609 26.1117 19.806 25.6338 19.806C25.3355 19.806 25.0523 19.9687 25.0523 20.2733C25.0523 21.1026 26.7822 20.8471 26.7822 21.9593C26.7822 22.4265 26.3874 22.9229 25.4995 22.9229C25.2015 22.9229 24.8503 22.8236 24.5901 22.6819L24.5076 21.8672L24.6419 21.8315Z" fill="white"/>
<path fill-rule="evenodd" clip-rule="evenodd" d="M33.5169 19.1538H33.3309C33.1889 18.3258 32.5699 17.9924 31.7351 17.9924C30.8764 17.9924 29.6313 18.5375 29.6313 20.2375C29.6313 21.6689 30.7057 22.6961 31.854 22.6961C32.5917 22.6961 33.2046 22.2142 33.3534 21.47L33.525 21.5123L33.3534 22.5469C33.0402 22.7313 32.1972 22.9229 31.7044 22.9229C29.9599 22.9229 28.8562 21.853 28.8562 20.2594C28.8562 18.8068 30.2211 17.7653 31.6829 17.7653C32.2867 17.7653 32.8683 17.95 33.4427 18.1414L33.5169 19.1538Z" fill="white"/>
<path fill-rule="evenodd" clip-rule="evenodd" d="M33.7861 22.6321H33.9273C34.1368 22.6321 34.2857 22.6321 34.2857 22.3978V18.4533C34.2857 17.9925 34.174 17.9784 33.8903 17.9004V17.7869C34.1884 17.695 34.5019 17.5677 34.6589 17.4821C34.7399 17.4402 34.8001 17.4041 34.8221 17.4041C34.8677 17.4041 34.8825 17.4471 34.8825 17.504V22.3978C34.8825 22.6321 35.0467 22.6321 35.2553 22.6321H35.3815V22.8164C35.1287 22.8164 34.8677 22.8024 34.599 22.8024C34.3307 22.8024 34.0625 22.809 33.7861 22.8164V22.6321Z" fill="white"/>
<path fill-rule="evenodd" clip-rule="evenodd" d="M38.5748 22.4264C38.5748 22.5543 38.6564 22.561 38.7828 22.561C38.8728 22.561 38.9842 22.5543 39.0819 22.5543V22.7034C38.761 22.7314 38.1491 22.8802 38.0072 22.9228L37.97 22.9013V22.3274C37.523 22.6744 37.1795 22.9228 36.6492 22.9228C36.2466 22.9228 35.8292 22.6744 35.8292 22.0801V20.2662C35.8292 20.0818 35.7996 19.9047 35.3825 19.8698V19.7349C35.6512 19.7279 36.2466 19.6855 36.3438 19.6855C36.4266 19.6855 36.4266 19.7349 36.4266 19.891V21.7183C36.4266 21.931 36.4266 22.5396 37.0754 22.5396C37.3285 22.5396 37.6642 22.3559 37.9772 22.1083V20.2023C37.9772 20.0608 37.6195 19.9829 37.3514 19.9124V19.785C38.0219 19.7419 38.4401 19.6855 38.5146 19.6855C38.5748 19.6855 38.5748 19.7349 38.5748 19.8131V22.4264Z" fill="white"/>
<path fill-rule="evenodd" clip-rule="evenodd" d="M40.0586 20.0888C40.3567 19.8486 40.7597 19.5788 41.1698 19.5788C42.0351 19.5788 42.5573 20.295 42.5573 21.0669C42.5573 21.9946 41.841 22.9229 40.774 22.9229C40.2226 22.9229 39.9317 22.7523 39.7374 22.6744L39.5143 22.8374L39.3579 22.7598C39.4246 22.3419 39.4622 21.9311 39.4622 21.4988V18.4533C39.4622 17.9925 39.3499 17.9784 39.0665 17.9004V17.7869C39.3652 17.695 39.6781 17.5677 39.8346 17.4821C39.9169 17.4402 39.9764 17.4041 39.9991 17.4041C40.0435 17.4041 40.0586 17.4472 40.0586 17.504V20.0888ZM40.0585 22.0157C40.0585 22.2848 40.3272 22.7385 40.8268 22.7385C41.6246 22.7385 41.9601 21.9946 41.9601 21.3639C41.9601 20.5991 41.3492 19.9616 40.7676 19.9616C40.4905 19.9616 40.2598 20.1319 40.0585 20.295V22.0157Z" fill="white"/>
<path fill-rule="evenodd" clip-rule="evenodd" d="M7.88239 26.935H7.93938C8.08531 26.935 8.23954 26.916 8.23954 26.7154V24.6962C8.23954 24.4953 8.08531 24.4762 7.93938 24.4762H7.88239V24.3604C8.04061 24.3604 8.28409 24.3757 8.48348 24.3757C8.68625 24.3757 8.92943 24.3604 9.12022 24.3604V24.4762H9.06292C8.9176 24.4762 8.76306 24.4953 8.76306 24.6962V26.7154C8.76306 26.916 8.9176 26.935 9.06292 26.935H9.12022V27.0508C8.92559 27.0508 8.68149 27.0359 8.47933 27.0359C8.2801 27.0359 8.04061 27.0508 7.88239 27.0508V26.935Z" fill="white"/>
<path fill-rule="evenodd" clip-rule="evenodd" d="M9.12021 27.0674C8.92389 27.0674 8.68103 27.0519 8.47902 27.0519C8.2804 27.0519 8.04168 27.0674 7.88238 27.0674H7.86472V26.9184H7.93907C8.08638 26.9151 8.22033 26.9038 8.22156 26.7155V24.6963C8.22033 24.5076 8.08638 24.4954 7.93907 24.4929H7.86472V24.3436H7.88238C8.04168 24.3436 8.28501 24.3587 8.48348 24.3587C8.68533 24.3587 8.92835 24.3436 9.12021 24.3436H9.13834V24.4929H9.06368C8.91621 24.4954 8.78149 24.5076 8.78072 24.6963V26.7155C8.78149 26.9038 8.91621 26.9151 9.06368 26.9184H9.13834V27.0674H9.12021ZM9.10338 27.035L9.10353 26.9531H9.06436C8.91919 26.9531 8.74668 26.9288 8.74576 26.7161V24.6969C8.74668 24.4837 8.91919 24.46 9.06436 24.46H9.10338V24.3777C8.91612 24.3778 8.68093 24.3933 8.48415 24.3933C8.29137 24.3933 8.05803 24.3788 7.90088 24.3777V24.46H7.93974C8.08445 24.46 8.25726 24.4837 8.25726 24.6969V26.7161C8.25726 26.9288 8.08445 26.9531 7.93974 26.9531H7.90088V27.035C8.05803 27.0337 8.28722 27.0196 8.4797 27.0196C8.6774 27.0196 8.91197 27.034 9.10338 27.035Z" fill="white"/>
<path fill-rule="evenodd" clip-rule="evenodd" d="M11.9081 26.2911L11.9163 26.2836V24.8386C11.9163 24.5223 11.6846 24.476 11.5629 24.476H11.4735V24.3604C11.6646 24.3604 11.8513 24.3757 12.0418 24.3757C12.2081 24.3757 12.3753 24.3604 12.541 24.3604V24.476H12.4806C12.3097 24.476 12.1189 24.5068 12.1189 24.9655V26.7192C12.1189 26.8543 12.1229 26.9891 12.1428 27.1088H11.9886L9.89899 24.8959V26.4843C9.89899 26.8199 9.96765 26.935 10.2801 26.935H10.3492V27.0508C10.1747 27.0508 10.0004 27.0358 9.82587 27.0358C9.64368 27.0358 9.45673 27.0508 9.27393 27.0508V26.935H9.33092C9.6108 26.935 9.69606 26.7538 9.69606 26.4464V24.8224C9.69606 24.6068 9.5088 24.476 9.32692 24.476H9.27393V24.3604C9.42785 24.3604 9.58638 24.3757 9.7403 24.3757C9.86243 24.3757 9.9801 24.3604 10.1018 24.3604L11.9081 26.2911Z" fill="white"/>
<path fill-rule="evenodd" clip-rule="evenodd" d="M12.1429 27.125L11.9758 27.1196L9.91625 24.9395V26.4844C9.92117 26.8195 9.97478 26.9148 10.2803 26.9184H10.3673V27.0674H10.3493C10.1737 27.0674 9.99905 27.0519 9.82592 27.0519C9.6442 27.0519 9.45771 27.0674 9.27383 27.0674H9.25601V26.9184H9.33098C9.59919 26.917 9.67584 26.7533 9.67876 26.4463V24.823C9.67799 24.6178 9.50072 24.4929 9.32714 24.4929H9.25601V24.3436H9.27383C9.42898 24.3436 9.58782 24.3587 9.74005 24.3587C9.8611 24.3587 9.97831 24.3436 10.1152 24.3496L11.8987 26.2563V24.8387C11.8967 24.5326 11.6813 24.4954 11.5632 24.4929H11.4558V24.3436H11.4738C11.6655 24.3436 11.8523 24.3587 12.0418 24.3587C12.207 24.3587 12.3733 24.3436 12.5411 24.3436H12.5589V24.4929H12.4807C12.3131 24.497 12.1412 24.511 12.1363 24.9656V26.7193C12.1363 26.8542 12.1408 26.9887 12.1603 27.1057L12.1639 27.125H12.1429ZM11.9895 27.0921H12.1238C12.1057 26.9761 12.1024 26.8482 12.1024 26.7199V24.9662C12.1024 24.5036 12.3066 24.46 12.4814 24.4597H12.5241V24.3777C12.3642 24.3788 12.204 24.3929 12.0425 24.3929C11.8567 24.3929 11.676 24.3788 11.4926 24.3777L11.4921 24.4597H11.5639C11.6886 24.46 11.9345 24.5126 11.9345 24.8393L11.9292 26.2964L11.9212 26.3038L11.9074 26.3162L10.1025 24.3777C9.98194 24.3777 9.86458 24.3929 9.74076 24.3929C9.59206 24.3929 9.43968 24.3788 9.29251 24.3777L9.29174 24.4597H9.32784C9.51817 24.46 9.71403 24.598 9.71403 24.8237V26.4469C9.71403 26.7554 9.62355 26.9523 9.33168 26.9533L9.29251 26.9523V27.035C9.46825 27.0337 9.64936 27.0196 9.82663 27.0196C9.99592 27.0196 10.1649 27.0337 10.3323 27.035V26.9533H10.281C9.96166 26.9523 9.88255 26.8201 9.88224 26.485V24.8535L11.9895 27.0921ZM11.9083 26.2912L11.9211 26.2801L11.9083 26.2912ZM11.8986 26.2837V26.2822L11.8954 26.2798L11.8986 26.2837Z" fill="white"/>
<path fill-rule="evenodd" clip-rule="evenodd" d="M13.1492 24.5532C12.8444 24.5532 12.8326 24.6229 12.7717 24.9039H12.6499C12.6659 24.796 12.686 24.6881 12.6986 24.5764C12.7149 24.468 12.7231 24.3605 12.7231 24.249H12.8203C12.853 24.3647 12.9544 24.3605 13.0645 24.3605H15.1577C15.2678 24.3605 15.3691 24.3567 15.3774 24.241L15.4743 24.2567C15.4586 24.3605 15.442 24.4646 15.4302 24.5689C15.4222 24.673 15.4222 24.7767 15.4222 24.8807L15.3003 24.9236C15.292 24.7812 15.2718 24.5532 14.9999 24.5532H14.3343V26.6038C14.3343 26.9011 14.4766 26.9351 14.671 26.9351H14.7485V27.0509C14.5901 27.0509 14.3059 27.0361 14.0872 27.0361C13.8434 27.0361 13.559 27.0509 13.4007 27.0509V26.9351H13.4781C13.7017 26.9351 13.8148 26.9161 13.8148 26.6118V24.5532H13.1492Z" fill="white"/>
<path fill-rule="evenodd" clip-rule="evenodd" d="M14.7487 27.0674C14.5888 27.0674 14.3049 27.0521 14.087 27.0521C13.8436 27.0521 13.5597 27.0674 13.4005 27.0674H13.3832V26.9185H13.478C13.7016 26.9135 13.7915 26.9108 13.7966 26.6118V24.5697H13.1491V24.536H13.8317V26.6118C13.8317 26.9213 13.7004 26.9525 13.478 26.9528H13.4179V27.0342C13.578 27.0332 13.8514 27.019 14.087 27.019C14.2983 27.019 14.5694 27.0332 14.7302 27.0342V26.9528H14.6709C14.4746 26.9525 14.3167 26.9067 14.3167 26.6038V24.536H14.9998C15.272 24.537 15.3081 24.7567 15.3166 24.9001L15.4045 24.8694C15.4045 24.7687 15.4049 24.6679 15.4121 24.5666C15.4241 24.467 15.4389 24.3691 15.4541 24.2703L15.3925 24.2605C15.3736 24.3727 15.2591 24.3787 15.1574 24.3773H13.0432C12.9477 24.3774 12.8437 24.373 12.8071 24.2655H12.7402C12.7395 24.372 12.7319 24.4754 12.7165 24.5782C12.7044 24.6841 12.6858 24.7858 12.671 24.8879H12.7577C12.811 24.619 12.8457 24.5322 13.1491 24.536V24.5697C12.8484 24.5754 12.8551 24.6231 12.7888 24.9079L12.7859 24.921H12.6295L12.6317 24.901C12.6483 24.7935 12.6689 24.6852 12.6807 24.5733C12.6976 24.4664 12.7053 24.3595 12.7053 24.249V24.2319H12.8342L12.8372 24.244C12.8646 24.3412 12.9397 24.3419 13.0432 24.3437H15.1574C15.2705 24.3419 15.3528 24.3405 15.3598 24.2397L15.3611 24.2214L15.3796 24.2249L15.4943 24.2422L15.4914 24.2592C15.4753 24.3627 15.4594 24.4664 15.4472 24.5697C15.4396 24.673 15.4396 24.7766 15.4396 24.8807V24.8924L15.4278 24.8969L15.2842 24.9468L15.2833 24.9245C15.272 24.7795 15.2564 24.5697 14.9998 24.5697H14.352V26.6038C14.356 26.8944 14.4774 26.9148 14.6709 26.9185H14.7659V27.0674H14.7487Z" fill="white"/>
<path fill-rule="evenodd" clip-rule="evenodd" d="M15.604 26.935H15.6611C15.8068 26.935 15.9615 26.916 15.9615 26.7154V24.6962C15.9615 24.4953 15.8068 24.4762 15.6611 24.4762H15.604V24.3604C15.8507 24.3604 16.2738 24.3757 16.614 24.3757C16.9555 24.3757 17.377 24.3604 17.6529 24.3604C17.6459 24.5261 17.6497 24.7811 17.6617 24.9504L17.5394 24.981C17.5199 24.7303 17.4712 24.5305 17.0449 24.5305H16.4815V25.5396H16.9635C17.207 25.5396 17.26 25.4091 17.2841 25.2007H17.4058C17.3976 25.3513 17.3933 25.5016 17.3933 25.6517C17.3933 25.7985 17.3976 25.9448 17.4058 26.091L17.2841 26.114C17.26 25.8831 17.2478 25.7328 16.9675 25.7328H16.4815V26.6304C16.4815 26.8813 16.7159 26.8813 16.9758 26.8813C17.4629 26.8813 17.6778 26.8502 17.7996 26.4114L17.9128 26.4379C17.8601 26.6426 17.8118 26.8463 17.7753 27.0508C17.5153 27.0508 17.0486 27.0359 16.6841 27.0359C16.318 27.0359 15.8355 27.0508 15.604 27.0508V26.935Z" fill="white"/>
<path fill-rule="evenodd" clip-rule="evenodd" d="M17.7751 27.0674C17.5147 27.0674 17.0477 27.0513 16.6837 27.0513C16.3181 27.0513 15.8357 27.0674 15.6039 27.0674H15.5869V26.9184H15.661C15.8079 26.9161 15.9416 26.9038 15.9434 26.7155V24.6963C15.9416 24.5079 15.8079 24.4954 15.661 24.4929H15.5869V24.3436H15.6039C15.8518 24.3436 16.274 24.3587 16.6141 24.3587C16.9553 24.3587 17.3766 24.3436 17.653 24.3436H17.6709L17.6703 24.3614C17.6677 24.4191 17.666 24.4876 17.666 24.5601C17.666 24.6933 17.6703 24.8394 17.6783 24.9491L17.6791 24.9628L17.6654 24.9668L17.5227 25.0022L17.5221 24.9824C17.4981 24.7323 17.4628 24.5504 17.045 24.5466H16.4979L16.4976 25.5228H16.9634C17.1974 25.5204 17.2391 25.4069 17.2668 25.199L17.2677 25.1836H17.4238L17.4235 25.2012C17.4156 25.3518 17.4109 25.5016 17.4109 25.6517C17.4109 25.7975 17.4156 25.9438 17.4235 26.0903L17.4238 26.1043L17.409 26.1075L17.2677 26.1342L17.2668 26.1161C17.2387 25.8808 17.2368 25.7518 16.9675 25.7491H16.4979V26.6304C16.4986 26.8647 16.7112 26.8634 16.9757 26.8647C17.4643 26.862 17.66 26.8392 17.7823 26.4069L17.7865 26.3913L17.8035 26.3939L17.9336 26.426L17.9299 26.4419C17.8773 26.6459 17.8289 26.8497 17.7922 27.0537L17.7891 27.0674H17.7751ZM17.7608 27.0348C17.7963 26.8398 17.8425 26.6452 17.8923 26.4512L17.8124 26.4321C17.6909 26.8632 17.4554 26.9017 16.9764 26.8988C16.7206 26.8988 16.465 26.8988 16.4636 26.6311V25.7167H16.9683C17.2517 25.714 17.2803 25.8762 17.3005 26.0955L17.3881 26.0784C17.3803 25.9363 17.3763 25.7936 17.3763 25.6524C17.3763 25.5077 17.3803 25.3632 17.3881 25.2178H17.3005C17.2776 25.4191 17.2114 25.5596 16.9641 25.5571H16.4636V24.5138H17.0457C17.4677 24.5106 17.5376 24.7181 17.556 24.9605L17.6434 24.9379C17.6363 24.8292 17.6316 24.6895 17.6316 24.5608C17.6316 24.4948 17.6334 24.4322 17.6357 24.3777C17.36 24.3788 16.9484 24.3929 16.6148 24.3929C16.2813 24.3929 15.8708 24.3788 15.6224 24.3777V24.4597H15.6618C15.8062 24.46 15.9788 24.4837 15.9798 24.6969V26.7161C15.9788 26.9288 15.8062 26.9523 15.6618 26.9533H15.6224V27.0348C15.8587 27.034 16.3278 27.0196 16.6844 27.0196C17.0426 27.0196 17.4992 27.034 17.7608 27.0348Z" fill="white"/>
<path fill-rule="evenodd" clip-rule="evenodd" d="M18.4609 24.7686C18.4609 24.4876 18.2984 24.476 18.1724 24.476H18.0992V24.3604C18.2291 24.3604 18.4807 24.3757 18.7285 24.3757C18.9715 24.3757 19.1666 24.3604 19.3817 24.3604C19.8923 24.3604 20.3478 24.4912 20.3478 25.0389C20.3478 25.3856 20.1041 25.5973 19.7837 25.7175L20.4773 26.7036C20.5912 26.8667 20.6717 26.9124 20.8711 26.935V27.0508C20.7369 27.0508 20.6071 27.0359 20.4736 27.0359C20.3478 27.0359 20.2174 27.0508 20.0922 27.0508C19.7794 26.6617 19.5113 26.2456 19.2477 25.8017H18.9803V26.627C18.9803 26.9238 19.1261 26.935 19.3121 26.935H19.3857V27.0508C19.1539 27.0508 18.9195 27.0359 18.6877 27.0359C18.4929 27.0359 18.3021 27.0508 18.0992 27.0508V26.935H18.1724C18.3231 26.935 18.4609 26.8698 18.4609 26.7274V24.7686ZM18.9803 25.6625H19.1786C19.585 25.6625 19.8037 25.5165 19.8037 25.0614C19.8037 24.7187 19.5724 24.499 19.2107 24.499C19.0889 24.499 19.037 24.5108 18.9803 24.5146V25.6625Z" fill="white"/>
<path fill-rule="evenodd" clip-rule="evenodd" d="M20.8712 27.0674C20.7351 27.0674 20.6061 27.0519 20.4726 27.0519C20.3489 27.0519 20.2191 27.0674 20.0778 27.061C19.7664 26.6729 19.4996 26.2591 19.2375 25.8191H18.9977V26.6263C19.0022 26.9165 19.1246 26.9143 19.3122 26.9184H19.4032V27.0674H19.3853C19.1533 27.0674 18.9175 27.0519 18.6876 27.0519C18.4937 27.0519 18.3031 27.0674 18.0992 27.0674H18.0815V26.9184H18.1725C18.3184 26.9174 18.4418 26.857 18.4424 26.7274V24.7686C18.4393 24.4954 18.2984 24.4967 18.1725 24.4929H18.0815V24.3436H18.0992C18.2305 24.3436 18.4811 24.3587 18.7286 24.3587C18.9708 24.3587 19.1655 24.3436 19.3817 24.3436C19.8934 24.3446 20.3643 24.4784 20.3655 25.0384C20.3655 25.3862 20.1234 25.6036 19.8105 25.7248L20.4919 26.6945C20.6054 26.8544 20.6761 26.8943 20.8735 26.9184L20.8883 26.9206V27.0674H20.8712ZM18.9809 25.7857H19.2582L19.2632 25.7943C19.5275 26.2371 19.7941 26.6534 20.0929 27.035C20.2164 27.035 20.3468 27.0196 20.4733 27.0196C20.6028 27.0196 20.7281 27.033 20.8541 27.0348V26.9501C20.6639 26.9281 20.5745 26.8735 20.4637 26.7138L19.7573 25.7104L19.7772 25.7027C20.0951 25.5838 20.3306 25.378 20.3307 25.039C20.3306 24.5043 19.8926 24.3803 19.3824 24.3777C19.1688 24.3777 18.9737 24.3933 18.7293 24.3933C18.4909 24.3933 18.25 24.3788 18.1173 24.3777V24.4597H18.1732C18.2991 24.46 18.4784 24.4798 18.4784 24.7693V26.7281C18.4784 26.8827 18.3259 26.9531 18.1732 26.9533H18.1173V27.0348C18.3124 27.034 18.4976 27.0196 18.6883 27.0196C18.9148 27.0196 19.144 27.034 19.3685 27.0348V26.9533H19.3129C19.1281 26.9531 18.9629 26.9313 18.9629 26.627V25.7857H18.9809ZM18.9802 25.6793H18.9622V24.4992L18.9777 24.498C19.0333 24.4938 19.088 24.4831 19.2108 24.4831C19.5804 24.4831 19.8211 24.7112 19.8214 25.0626C19.8203 25.5228 19.588 25.6792 19.1786 25.6793H18.9802ZM19.1787 25.6464C19.5804 25.6426 19.7828 25.5103 19.7868 25.0626C19.7844 24.7258 19.5642 24.5169 19.2108 24.5154C19.1012 24.5154 19.0495 24.5251 18.9977 24.5299V25.6464H19.1787Z" fill="white"/>
<path fill-rule="evenodd" clip-rule="evenodd" d="M23.6263 26.2911L23.6334 26.2836V24.8386C23.6334 24.5223 23.4028 24.476 23.281 24.476H23.192V24.3604C23.3828 24.3604 23.5688 24.3757 23.7601 24.3757C23.9269 24.3757 24.0921 24.3604 24.2596 24.3604V24.476H24.1985C24.028 24.476 23.8374 24.5068 23.8374 24.9655V26.7192C23.8374 26.8543 23.8414 26.9891 23.8613 27.1088H23.7077L21.6179 24.8959V26.4843C21.6179 26.8199 21.6864 26.935 21.9989 26.935H22.068V27.0508C21.8937 27.0508 21.7188 27.0358 21.5445 27.0358C21.3612 27.0358 21.1749 27.0508 20.9924 27.0508V26.935H21.0488C21.329 26.935 21.4147 26.7538 21.4147 26.4464V24.8224C21.4147 24.6068 21.2277 24.476 21.0452 24.476H20.9924V24.3604C21.146 24.3604 21.3055 24.3757 21.4594 24.3757C21.58 24.3757 21.6983 24.3604 21.8202 24.3604L23.6263 26.2911Z" fill="white"/>
<path fill-rule="evenodd" clip-rule="evenodd" d="M23.8613 27.125L23.6946 27.1196L21.6348 24.9398V26.4842C21.6396 26.8199 21.693 26.9148 21.999 26.9184H22.085V27.0674H22.0674C21.8919 27.0674 21.7177 27.0513 21.5438 27.0513C21.3627 27.0513 21.1752 27.0674 20.9924 27.0674H20.9742V26.9184H21.0489C21.317 26.9174 21.3938 26.7533 21.3964 26.4454V24.8225C21.3959 24.617 21.219 24.4929 21.0454 24.4929H20.9742V24.3436H20.9924C21.1474 24.3436 21.3062 24.3587 21.4594 24.3587C21.5786 24.3587 21.6961 24.3436 21.8322 24.3486L23.6163 26.2563V24.8387C23.6152 24.5326 23.3991 24.4946 23.2811 24.4929H23.174V24.3436H23.1917C23.3834 24.3436 23.5705 24.3587 23.7602 24.3587C23.9255 24.3587 24.0917 24.3436 24.259 24.3436H24.277V24.4929H24.1986C24.0312 24.4967 23.8587 24.511 23.8547 24.9656V26.7193C23.8547 26.8542 23.8582 26.9879 23.879 27.106L23.881 27.125H23.8613ZM23.7083 27.0921H23.8414C23.8236 26.9768 23.82 26.8482 23.82 26.7199V24.9662C23.8203 24.5036 24.0256 24.4607 24.1993 24.4597H24.242V24.3777C24.0822 24.3788 23.9219 24.3929 23.7609 24.3929C23.5744 24.3929 23.3936 24.3788 23.21 24.3777V24.4597H23.2818C23.4068 24.4607 23.6526 24.5126 23.6526 24.8393L23.6467 26.2964L23.6394 26.3038L23.6266 26.3165L21.821 24.3777C21.7003 24.3777 21.5826 24.3929 21.46 24.3929C21.3095 24.3929 21.1579 24.3788 21.0104 24.3777V24.4597H21.046C21.237 24.4607 21.4322 24.5974 21.4322 24.8231V26.4461C21.4322 26.7554 21.3405 26.9523 21.0496 26.9533L21.0104 26.9531V27.0349C21.1857 27.0337 21.3665 27.0196 21.5445 27.0196C21.7147 27.0196 21.8834 27.0337 22.0511 27.0349V26.9533H21.9997C21.6803 26.9531 21.6007 26.8206 21.5998 26.4849V24.854L23.7083 27.0921ZM23.626 26.2912L23.6392 26.2801L23.626 26.2912ZM23.6163 26.2837V26.2827L23.6133 26.2798L23.6163 26.2837Z" fill="white"/>
<path fill-rule="evenodd" clip-rule="evenodd" d="M24.9122 26.4998C24.8713 26.6304 24.8223 26.7316 24.8223 26.8001C24.8223 26.9161 24.9933 26.9352 25.1268 26.9352H25.1721V27.0509C25.0091 27.0426 24.8435 27.036 24.6802 27.036C24.5341 27.036 24.3888 27.0426 24.2422 27.0509V26.9352H24.267C24.4249 26.9352 24.5593 26.8463 24.6195 26.6844L25.2689 24.9158C25.3219 24.7728 25.395 24.5802 25.4197 24.4373C25.5487 24.3951 25.7117 24.3185 25.7885 24.2717C25.8011 24.2677 25.8087 24.2638 25.8209 24.2638C25.8332 24.2638 25.8408 24.2638 25.8497 24.2759C25.8617 24.3064 25.8735 24.3411 25.8861 24.3719L26.6331 26.3881C26.6818 26.5226 26.73 26.6651 26.782 26.7814C26.8314 26.8895 26.9167 26.9352 27.0511 26.9352H27.0754V27.0509C26.8926 27.0426 26.7095 27.036 26.5156 27.036C26.3167 27.036 26.1131 27.0426 25.9062 27.0509V26.9352H25.9509C26.0437 26.9352 26.203 26.9199 26.203 26.8234C26.203 26.7737 26.1663 26.6695 26.121 26.5456L25.9629 26.0987H25.0418L24.9122 26.4998ZM25.5047 24.7922H25.4962L25.1191 25.8831H25.8774L25.5047 24.7922Z" fill="white"/>
<path fill-rule="evenodd" clip-rule="evenodd" d="M27.074 27.0673C26.8917 27.0599 26.7087 27.0513 26.5155 27.0513C26.3165 27.0513 26.1141 27.0599 25.907 27.0673L25.8883 27.0682V26.9176H25.9508C26.0448 26.9176 26.1843 26.8976 26.1846 26.8234C26.1855 26.7795 26.1491 26.6738 26.1044 26.5513L25.9499 26.1152H25.0547L24.9285 26.5047C24.8876 26.6357 24.8383 26.7376 24.8391 26.8003C24.8405 26.8944 24.9919 26.9176 25.1266 26.9176H25.189V27.0682L25.1706 27.0673C25.0084 27.0599 24.8428 27.0513 24.6804 27.0513C24.5355 27.0513 24.3888 27.0599 24.2435 27.0673L24.2246 27.0682V26.9176H24.2667C24.4175 26.9173 24.5435 26.8355 24.6022 26.6789L25.2521 24.9098C25.3045 24.7671 25.3783 24.5754 25.4133 24.4213C25.5406 24.3803 25.7039 24.3026 25.7818 24.256C25.7932 24.2522 25.8044 24.2473 25.8207 24.2473C25.8307 24.2467 25.8525 24.2492 25.8657 24.2693C25.8772 24.301 25.8901 24.3355 25.9024 24.3666L26.6496 26.3825C26.6974 26.5174 26.7459 26.6598 26.799 26.7741C26.8461 26.8768 26.9206 26.9173 27.051 26.9176H27.092V27.0682L27.074 27.0673ZM25.9245 27.0336C26.1252 27.0269 26.3223 27.0195 26.5162 27.0195C26.7044 27.0195 26.8813 27.0269 27.0577 27.0336V26.953H27.0517C26.9125 26.9538 26.8168 26.9019 26.767 26.7882C26.7142 26.6718 26.6649 26.5287 26.617 26.3937L25.8698 24.3777C25.8575 24.347 25.846 24.3125 25.8354 24.2851C25.8314 24.2813 25.8323 24.2813 25.8291 24.2813H25.8214C25.8132 24.2813 25.8083 24.2836 25.7979 24.2861C25.7198 24.3343 25.5572 24.4103 25.4364 24.4403C25.4117 24.5864 25.3386 24.779 25.2859 24.9218L24.6366 26.6905C24.5748 26.858 24.4321 26.9533 24.2674 26.953H24.2607V27.0336C24.3998 27.0269 24.5402 27.0195 24.6811 27.0195C24.8381 27.0195 24.9982 27.0269 25.1535 27.0336V26.953H25.1274C24.9948 26.9512 24.8101 26.9375 24.8055 26.8009C24.8058 26.7245 24.8556 26.6259 24.8954 26.4956L24.9126 26.5004L24.8954 26.4951L25.029 26.0833H25.9753L26.1378 26.541C26.1835 26.665 26.2203 26.7677 26.2203 26.824C26.2143 26.942 26.0435 26.9508 25.9515 26.953H25.9245V27.0336ZM25.0942 25.8997L25.4827 24.7752H25.5045V24.7922L25.5002 24.7934L25.5045 24.7922V24.7752H25.5167L25.9024 25.8997H25.0942ZM25.1427 25.866H25.8532L25.5001 24.8332L25.1427 25.866ZM25.4869 24.7972L25.4962 24.7944L25.4869 24.7972Z" fill="white"/>
<path fill-rule="evenodd" clip-rule="evenodd" d="M27.2537 24.5532C26.9494 24.5532 26.9371 24.6229 26.876 24.9039H26.754C26.77 24.796 26.7907 24.6881 26.8033 24.5764C26.8192 24.468 26.827 24.3605 26.827 24.249H26.9252C26.957 24.3647 27.0586 24.3605 27.1682 24.3605H29.2626C29.3716 24.3605 29.473 24.3567 29.481 24.241L29.5781 24.2567C29.563 24.3605 29.5469 24.4646 29.5342 24.5689C29.5252 24.673 29.5252 24.7767 29.5252 24.8807L29.404 24.9236C29.3968 24.7812 29.3764 24.5532 29.1039 24.5532H28.4384V26.6038C28.4384 26.9011 28.5807 26.9351 28.7751 26.9351H28.8527V27.0509C28.6942 27.0509 28.4106 27.0361 28.1909 27.0361C27.9479 27.0361 27.6631 27.0509 27.5049 27.0509V26.9351H27.5822C27.8058 26.9351 27.919 26.9161 27.919 26.6118V24.5532H27.2537Z" fill="white"/>
<path fill-rule="evenodd" clip-rule="evenodd" d="M28.8528 27.0674C28.6933 27.0674 28.4088 27.0521 28.1907 27.0521C27.9483 27.0521 27.6641 27.0674 27.5051 27.0674H27.4871V26.9185H27.5822C27.806 26.9135 27.8957 26.9108 27.9011 26.6118L27.9008 24.5697H27.2538V24.536H27.9366V26.6118C27.9366 26.9213 27.8051 26.9517 27.5822 26.9525H27.5225V27.0345C27.6828 27.0332 27.9555 27.019 28.1907 27.019C28.4028 27.019 28.6744 27.0332 28.8346 27.0345V26.9525H28.775C28.5795 26.9517 28.4214 26.9071 28.4211 26.6038V24.536H29.1039C29.3766 24.537 29.4121 24.7567 29.4199 24.9001L29.5081 24.8694C29.5081 24.7687 29.5087 24.6679 29.517 24.5671C29.5279 24.4677 29.5433 24.3691 29.558 24.2707L29.4967 24.2605C29.4781 24.3727 29.3635 24.379 29.2626 24.3773H27.1475C27.0518 24.3783 26.9482 24.373 26.9114 24.2652H26.845C26.8441 24.3719 26.8361 24.4754 26.8201 24.5782C26.8091 24.6845 26.7896 24.7865 26.774 24.8879H26.8613C26.9146 24.619 26.9498 24.5318 27.2538 24.536V24.5697C26.9529 24.5747 26.9595 24.6231 26.8932 24.9079L26.8903 24.921H26.7336L26.7361 24.9019C26.7532 24.7935 26.7731 24.6852 26.7849 24.5742C26.8015 24.4664 26.8091 24.3595 26.8091 24.249V24.2319H26.938L26.9413 24.244C26.9697 24.3412 27.0436 24.3419 27.1475 24.3437H29.2626C29.3749 24.3419 29.4568 24.3405 29.464 24.24L29.4646 24.2214L29.4835 24.2249L29.5987 24.2422L29.596 24.2592C29.5792 24.3627 29.5638 24.4664 29.5516 24.5697C29.5433 24.673 29.5433 24.7767 29.5433 24.8807V24.8924L29.5314 24.8969L29.3878 24.9468L29.3872 24.9245C29.3766 24.7795 29.3605 24.5697 29.1039 24.5697H28.456V26.6038C28.4601 26.8944 28.5816 26.9148 28.775 26.9185H28.8697V27.0674H28.8528Z" fill="white"/>
<path fill-rule="evenodd" clip-rule="evenodd" d="M29.7284 26.935H29.7852C29.9315 26.935 30.0851 26.916 30.0851 26.7154V24.6962C30.0851 24.4953 29.9315 24.4762 29.7852 24.4762H29.7284V24.3604C29.8868 24.3604 30.1298 24.3757 30.3284 24.3757C30.5318 24.3757 30.7754 24.3604 30.9665 24.3604V24.4762H30.9095C30.7628 24.4762 30.6086 24.4953 30.6086 24.6962V26.7154C30.6086 26.916 30.7628 26.935 30.9095 26.935H30.9665V27.0508C30.7716 27.0508 30.5278 27.0359 30.3252 27.0359C30.126 27.0359 29.8868 27.0508 29.7284 27.0508V26.935Z" fill="white"/>
<path fill-rule="evenodd" clip-rule="evenodd" d="M30.9665 27.0674C30.7704 27.0674 30.5277 27.0513 30.3252 27.0513C30.1266 27.0513 29.8869 27.0674 29.7284 27.0674H29.7111V26.9184H29.7854C29.9316 26.9161 30.0665 26.9038 30.0674 26.7155V24.6963C30.0665 24.5079 29.9316 24.4954 29.7854 24.4929H29.7111V24.3436H29.7284C29.8869 24.3436 30.131 24.3587 30.3284 24.3587C30.5307 24.3587 30.7742 24.3436 30.9665 24.3436H30.9834V24.4929H30.9097C30.7612 24.4954 30.6277 24.5079 30.6263 24.6963V26.7155C30.6277 26.9038 30.7612 26.9161 30.9097 26.9184H30.9834V27.0674H30.9665ZM30.9488 27.0348V26.9531H30.9104C30.7647 26.9531 30.5925 26.9288 30.5925 26.7161V24.6969C30.5925 24.4837 30.7647 24.46 30.9104 24.4597H30.9488V24.3777C30.7617 24.3788 30.5266 24.3929 30.3291 24.3929C30.1364 24.3929 29.9042 24.3788 29.7467 24.3777V24.4597H29.7861C29.9301 24.46 30.1031 24.4837 30.1036 24.6969V26.7161C30.1031 26.9288 29.9301 26.9531 29.7861 26.9531H29.7467V27.0348C29.9031 27.033 30.1326 27.0196 30.3259 27.0196C30.5226 27.0196 30.7574 27.0337 30.9488 27.0348Z" fill="white"/>
<path fill-rule="evenodd" clip-rule="evenodd" d="M32.5846 24.3026C33.4498 24.3026 34.1394 24.8119 34.1394 25.6329C34.1394 26.5195 33.4696 27.1088 32.6055 27.1088C31.7448 27.1088 31.0876 26.5537 31.0876 25.7248C31.0876 24.9235 31.7408 24.3026 32.5846 24.3026ZM32.6459 26.939C33.4335 26.939 33.5709 26.2794 33.5709 25.7174C33.5709 25.154 33.251 24.4721 32.577 24.4721C31.867 24.4721 31.6557 25.0735 31.6557 25.5896C31.6557 26.2794 31.9888 26.939 32.6459 26.939Z" fill="white"/>
<path fill-rule="evenodd" clip-rule="evenodd" d="M31.0695 25.7249C31.0712 24.9143 31.7319 24.2872 32.5844 24.2859V24.3196C31.7502 24.3196 31.1048 24.9321 31.1039 25.7249C31.1056 26.5444 31.7532 27.0912 32.6056 27.0915C33.461 27.0912 34.1211 26.5104 34.1221 25.6324C34.1214 24.8216 33.4427 24.3203 32.5844 24.3196V24.2859C33.4557 24.2868 34.1552 24.8011 34.1567 25.6324C34.1558 26.5282 33.478 27.1236 32.6056 27.125C31.7376 27.1236 31.0712 26.5629 31.0695 25.7249ZM31.6378 25.5898C31.6391 25.0712 31.8521 24.4552 32.5767 24.4552C33.2658 24.4566 33.5872 25.1512 33.5886 25.7176C33.5872 26.2796 33.448 26.955 32.646 26.955V26.9223C33.4176 26.9217 33.5517 26.2796 33.553 25.7176C33.553 25.1593 33.2363 24.4902 32.5767 24.4892C31.8805 24.4899 31.6749 25.0764 31.673 25.5898C31.6733 26.2764 32.0033 26.9213 32.646 26.9223V26.955C31.9724 26.9544 31.6391 26.2837 31.6378 25.5898Z" fill="white"/>
<path fill-rule="evenodd" clip-rule="evenodd" d="M36.874 26.2911L36.8824 26.2836V24.8386C36.8824 24.5223 36.6503 24.476 36.5286 24.476H36.4403V24.3604C36.6305 24.3604 36.8176 24.3757 37.0078 24.3757C37.1746 24.3757 37.341 24.3604 37.5075 24.3604V24.476H37.4465C37.2764 24.476 37.0849 24.5068 37.0849 24.9655V26.7192C37.0849 26.8543 37.0892 26.9891 37.1098 27.1088H36.9554L34.865 24.8959V26.4843C34.865 26.8199 34.9343 26.935 35.2461 26.935H35.3157V27.0508C35.141 27.0508 34.9668 27.0358 34.7923 27.0358C34.6095 27.0358 34.4227 27.0508 34.2401 27.0508V26.935H34.2971C34.5776 26.935 34.6622 26.7538 34.6622 26.4464V24.8224C34.6622 24.6068 34.4762 24.476 34.2926 24.476H34.2401V24.3604C34.3943 24.3604 34.5524 24.3757 34.7069 24.3757C34.8284 24.3757 34.9455 24.3604 35.0678 24.3604L36.874 26.2911Z" fill="white"/>
<path fill-rule="evenodd" clip-rule="evenodd" d="M37.1099 27.125L36.942 27.1196L34.8824 24.9398V26.4844C34.8872 26.8199 34.9408 26.9143 35.2456 26.9177H35.333V27.0674H35.3158C35.14 27.0674 34.9658 27.0519 34.7923 27.0519C34.6104 27.0519 34.4236 27.0674 34.2396 27.0674H34.223V26.9177H34.2969C34.5643 26.917 34.6414 26.7533 34.6446 26.4463V24.8225C34.6445 24.617 34.4671 24.4929 34.2927 24.4929H34.223V24.3436H34.2396C34.3952 24.3436 34.5534 24.3587 34.7067 24.3587C34.8271 24.3587 34.9437 24.3436 35.0814 24.3496L36.8645 26.2563V24.8387C36.8632 24.5326 36.647 24.4954 36.5286 24.4929H36.4217V24.3436H36.4402C36.6309 24.3436 36.8181 24.3587 37.0072 24.3587C37.1733 24.3587 37.3389 24.3436 37.5076 24.3436H37.5246V24.4929H37.4463C37.279 24.497 37.1063 24.5116 37.1029 24.9656V26.7193C37.1029 26.8542 37.1062 26.9887 37.1258 27.106L37.1294 27.125H37.1099ZM36.956 27.0921H37.089C37.0718 26.9761 37.0678 26.8482 37.0678 26.7199V24.9662C37.0678 24.5029 37.2727 24.4607 37.4469 24.4597H37.4909V24.3777C37.3297 24.3788 37.1701 24.3929 37.0079 24.3929C36.8231 24.3929 36.6417 24.3788 36.4579 24.3777V24.4597H36.5292C36.6546 24.4607 36.8996 24.5134 36.8996 24.8393L36.8953 26.2964L36.8875 26.3038L36.8745 26.3165L35.0685 24.3777C34.9484 24.3777 34.8302 24.3929 34.7073 24.3929C34.5577 24.3929 34.4053 24.3788 34.2577 24.3777V24.4597H34.2933C34.4841 24.4607 34.6801 24.5974 34.6801 24.8231V26.4469C34.6801 26.7554 34.5895 26.9523 34.2975 26.9533L34.2577 26.9531V27.0349C34.4339 27.0337 34.6146 27.0196 34.7929 27.0196C34.9622 27.0196 35.1304 27.0337 35.2986 27.0349V26.9533H35.2462C34.9278 26.9531 34.8479 26.8206 34.8479 26.485V24.8535L36.956 27.0921ZM36.8739 26.2912L36.8868 26.2801L36.8739 26.2912ZM36.8646 26.2837V26.2827L36.8614 26.2798L36.8646 26.2837Z" fill="white"/>
<path fill-rule="evenodd" clip-rule="evenodd" d="M38.1595 26.4998C38.1197 26.6304 38.0707 26.7316 38.0707 26.8001C38.0707 26.9161 38.2417 26.9352 38.3747 26.9352H38.42V27.0509C38.2575 27.0426 38.091 27.036 37.9285 27.036C37.7824 27.036 37.6364 27.0426 37.491 27.0509V26.9352H37.514C37.6732 26.9352 37.8076 26.8463 37.8669 26.6844L38.5176 24.9158C38.57 24.7728 38.6434 24.5802 38.6667 24.4373C38.7972 24.3951 38.9591 24.3185 39.0373 24.2717C39.0486 24.2677 39.0568 24.2638 39.0694 24.2638C39.0812 24.2638 39.0889 24.2638 39.0972 24.2759C39.1095 24.3064 39.1216 24.3411 39.1339 24.3719L39.8806 26.3881C39.929 26.5226 39.978 26.6651 40.031 26.7814C40.0797 26.8895 40.1648 26.9352 40.2986 26.9352H40.3236V27.0509C40.1407 27.0426 39.9579 27.036 39.7629 27.036C39.5645 27.036 39.3612 27.0426 39.154 27.0509V26.9352H39.199C39.2918 26.9352 39.4509 26.9199 39.4509 26.8234C39.4509 26.7737 39.4145 26.6695 39.3692 26.5456L39.211 26.0987H38.2899L38.1595 26.4998ZM38.7529 24.7922H38.7448L38.3664 25.8831H39.1265L38.7529 24.7922Z" fill="white"/>
<path fill-rule="evenodd" clip-rule="evenodd" d="M40.3219 27.0675C40.1389 27.0606 39.9567 27.052 39.7632 27.052C39.5652 27.052 39.3618 27.0606 39.155 27.0675L39.137 27.0683V26.9185H39.1988C39.2931 26.9185 39.4329 26.8978 39.4331 26.8235C39.4341 26.7796 39.3974 26.6744 39.3518 26.5514L39.1979 26.1153H38.302L38.1766 26.5049C38.1358 26.6369 38.0878 26.7377 38.0883 26.8002C38.0883 26.8946 38.2405 26.9185 38.3746 26.9185H38.4367V27.0683L38.4184 27.0675C38.2564 27.0606 38.0902 27.052 37.9286 27.052C37.7831 27.052 37.6374 27.0606 37.4911 27.0675L37.4734 27.0683V26.9185H37.5141C37.6654 26.9178 37.792 26.8355 37.8514 26.6791L38.5005 24.9099C38.5525 24.7672 38.6258 24.5755 38.6614 24.4221C38.7889 24.38 38.9519 24.3027 39.0309 24.2562C39.0413 24.2524 39.0527 24.2477 39.0693 24.2477C39.0797 24.2468 39.1011 24.2493 39.1135 24.2703C39.1258 24.3007 39.1378 24.3357 39.151 24.3668L39.8973 26.3826C39.9461 26.5176 39.9945 26.66 40.0472 26.7749C40.095 26.8769 40.1684 26.9175 40.2982 26.9185H40.3402V27.0683L40.3219 27.0675ZM39.1721 27.0342C39.3729 27.0272 39.5703 27.0198 39.7638 27.0198C39.9524 27.0198 40.129 27.0272 40.3061 27.0339L40.3056 26.9532H40.2988C40.1614 26.9535 40.0657 26.9022 40.015 26.7885C39.9615 26.6721 39.9133 26.529 39.8646 26.3944L39.1179 24.378C39.1059 24.3472 39.093 24.3128 39.0834 24.2861C39.0801 24.2816 39.0804 24.2816 39.0779 24.2816H39.0699C39.0612 24.2816 39.0567 24.2842 39.047 24.2868C38.9676 24.3339 38.8053 24.4113 38.6854 24.4406C38.6602 24.5866 38.5865 24.7789 38.5343 24.922L37.8843 26.6908C37.8226 26.8582 37.6808 26.9535 37.5147 26.9532H37.5087V27.0339C37.6485 27.0272 37.788 27.0198 37.9292 27.0198C38.0863 27.0198 38.2469 27.0272 38.4028 27.0339V26.9532H38.3753C38.2433 26.9515 38.0584 26.9382 38.0532 26.8009C38.0542 26.7248 38.1042 26.6264 38.1439 26.4958L38.1602 26.5007L38.1439 26.4954L38.2774 26.0835H39.2234L39.3864 26.5412C39.4311 26.6652 39.4681 26.7679 39.4681 26.8243C39.4623 26.9423 39.2916 26.951 39.1994 26.9532H39.1721V27.0342ZM38.3422 25.8998L38.732 24.7754H38.753V24.7924L38.7484 24.7936L38.753 24.7924V24.7754H38.7653L39.149 25.8998H38.3422ZM38.3913 25.8659H39.1013L38.7483 24.8337L38.3913 25.8659ZM38.7361 24.7972L38.7441 24.7945L38.7361 24.7972Z" fill="white"/>
<path fill-rule="evenodd" clip-rule="evenodd" d="M41.3458 26.6728C41.3458 26.8278 41.4586 26.8734 41.5888 26.8895C41.7549 26.901 41.9377 26.901 42.125 26.8813C42.2952 26.8619 42.4413 26.77 42.5141 26.6728C42.5786 26.5882 42.6152 26.4802 42.64 26.3956H42.7574C42.7127 26.6153 42.656 26.8314 42.6073 27.0508C42.2509 27.0508 41.8927 27.0359 41.5362 27.0359C41.1787 27.0359 40.8218 27.0508 40.4648 27.0508V26.935H40.5211C40.6675 26.935 40.8263 26.916 40.8263 26.677V24.6962C40.8263 24.4953 40.6675 24.476 40.5211 24.476H40.4648V24.3604C40.6796 24.3604 40.891 24.3757 41.1057 24.3757C41.3131 24.3757 41.5156 24.3604 41.7231 24.3604V24.476H41.6211C41.4669 24.476 41.3458 24.4801 41.3458 24.6844V26.6728Z" fill="white"/>
<path fill-rule="evenodd" clip-rule="evenodd" d="M42.6074 27.0674C42.2495 27.0674 41.892 27.0519 41.5361 27.0519C41.1791 27.0519 40.8219 27.0674 40.464 27.0674H40.447V26.9184H40.521C40.6677 26.9151 40.807 26.9053 40.8087 26.6771V24.6955C40.807 24.5079 40.6683 24.4954 40.521 24.4929H40.447V24.3436H40.464C40.6801 24.3436 40.8914 24.3587 41.1054 24.3587C41.312 24.3587 41.5141 24.3436 41.723 24.3436H41.7393V24.4929H41.621C41.4636 24.4967 41.3659 24.49 41.3624 24.6844V26.6729C41.3634 26.817 41.4628 26.8555 41.5897 26.8728C41.6611 26.8774 41.7367 26.8799 41.8148 26.8799C41.914 26.8799 42.0171 26.8755 42.122 26.865C42.2873 26.8463 42.4295 26.7556 42.4997 26.6637C42.5624 26.5813 42.5977 26.4756 42.6223 26.3917L42.6257 26.379H42.7787L42.7752 26.3993C42.7292 26.6196 42.6733 26.8347 42.6242 27.0544L42.6209 27.0674H42.6074ZM42.5932 27.0348C42.6402 26.8254 42.6932 26.6207 42.7371 26.4128H42.6534C42.6285 26.4967 42.5922 26.6001 42.5287 26.684C42.4528 26.7838 42.3025 26.8781 42.1265 26.8988C42.0203 26.909 41.9148 26.9142 41.8154 26.9142C41.7368 26.9142 41.6609 26.9109 41.587 26.9059C41.455 26.8922 41.3274 26.8384 41.3275 26.6735V24.6851C41.3275 24.4708 41.4702 24.4597 41.6217 24.4597H41.7053V24.3777C41.5054 24.3788 41.308 24.3933 41.106 24.3933C40.8963 24.3933 40.6906 24.3788 40.483 24.3777V24.4597H40.5217C40.6664 24.4597 40.8435 24.4837 40.8435 24.6962V26.6777C40.8435 26.9272 40.6671 26.9531 40.5217 26.9531H40.483V27.0348C40.8335 27.034 41.1844 27.0196 41.5368 27.0196C41.8896 27.0196 42.2419 27.034 42.5932 27.0348Z" fill="white"/>
<path fill-rule="evenodd" clip-rule="evenodd" d="M42.7078 24.251C42.9526 24.251 43.1353 24.4296 43.1353 24.6577C43.1353 24.8858 42.9526 25.0625 42.7078 25.0625C42.4635 25.0625 42.2805 24.8858 42.2805 24.6577C42.2805 24.4296 42.4635 24.251 42.7078 24.251ZM42.7077 24.9871C42.8994 24.9871 43.0458 24.8323 43.0458 24.6578C43.0458 24.483 42.9011 24.327 42.7077 24.327C42.5154 24.327 42.3691 24.483 42.3691 24.6578C42.3691 24.8323 42.5154 24.9871 42.7077 24.9871ZM42.4953 24.8717V24.852C42.5475 24.8448 42.5573 24.8462 42.5573 24.8158V24.515C42.5573 24.4727 42.5529 24.4581 42.497 24.4604V24.4397H42.7157C42.7908 24.4397 42.8601 24.4738 42.8601 24.5476C42.8601 24.6079 42.8183 24.6527 42.759 24.6701L42.8294 24.7631C42.8621 24.8052 42.8994 24.8448 42.9234 24.8588V24.8717H42.8403C42.8004 24.8717 42.765 24.792 42.6867 24.6851H42.6394V24.8196C42.6394 24.8462 42.6492 24.8448 42.7017 24.852V24.8717H42.4953ZM42.6394 24.6577H42.6898C42.7449 24.6577 42.7704 24.6181 42.7704 24.5541C42.7704 24.4896 42.7311 24.4667 42.687 24.4667H42.6394V24.6577Z" fill="white"/>
<path fill-rule="evenodd" clip-rule="evenodd" d="M17.3605 10.753C17.3605 7.1477 20.4377 4.2251 24.2336 4.2251C28.0295 4.2251 31.1068 7.1477 31.1068 10.753C31.1068 14.3582 28.0295 17.281 24.2336 17.281C20.4377 17.281 17.3605 14.3582 17.3605 10.753Z" fill="#0069AA"/>
<path fill-rule="evenodd" clip-rule="evenodd" d="M28.3902 10.6244C28.3874 8.95271 27.2872 7.52701 25.7369 6.96239V14.2861C27.2872 13.7208 28.3874 12.2964 28.3902 10.6244ZM22.7795 14.2848V6.96327C21.2306 7.52964 20.1321 8.9533 20.128 10.6245C20.1321 12.2954 21.2306 13.7189 22.7795 14.2848ZM24.259 4.43416C20.6595 4.43547 17.7433 7.20576 17.7427 10.6244C17.7433 14.0426 20.6595 16.8125 24.259 16.8131C27.8585 16.8125 30.7754 14.0426 30.7763 10.6244C30.7754 7.20576 27.8585 4.43547 24.259 4.43416ZM24.243 17.3973C20.3042 17.4151 17.0623 14.3844 17.0623 10.6951C17.0623 6.66309 20.3042 3.87427 24.243 3.875H26.0889C29.9812 3.87427 33.5335 6.66178 33.5335 10.6951C33.5335 14.3831 29.9812 17.3973 26.0889 17.3973H24.243Z" fill="white"/>
</svg>
