<svg width="50" height="31" viewBox="0 0 50 31" fill="none" xmlns="http://www.w3.org/2000/svg">
<rect width="50" height="31" rx="3" fill="#306FC8"/>
<mask id="mask0_342_640" style="mask-type:alpha" maskUnits="userSpaceOnUse" x="0" y="0" width="50" height="31">
<rect width="50" height="31" rx="3" fill="url(#paint0_linear_342_640)"/>
</mask>
<g mask="url(#mask0_342_640)">
<path d="M21.6395 22.7024V18.1896L19.4858 20.4121L21.6395 22.7024Z" fill="white"/>
<path d="M12.6134 18.7559V19.7717L15.6929 19.7656V20.9292H12.6134V22.0435H16.0657L17.673 20.3935L16.13 18.7559H12.6134Z" fill="white"/>
<path d="M25.6962 10.2044C25.8762 10.1059 25.9855 9.90889 25.9855 9.66878C25.9855 9.42867 25.8698 9.25629 25.6962 9.16394C25.529 9.07159 25.2783 9.06543 25.0276 9.06543H23.2918V10.3214H25.0083C25.2783 10.3214 25.5033 10.3091 25.6962 10.2044Z" fill="white"/>
<path d="M2.58435 11.0908H4.50659L3.54225 8.84973L2.58435 11.0908Z" fill="white"/>
<path d="M24.8797 18.7559H23.0475V20.1719H24.8669C25.4005 20.1719 25.7348 19.9256 25.7348 19.4392C25.7284 18.9529 25.3812 18.7559 24.8797 18.7559Z" fill="white"/>
<path d="M2.94437 13.375H4.153L4.69946 14.6371H9.42469V13.6767L9.84899 14.6371H12.292L12.7163 13.6644V14.6371H24.4554V12.5808H24.6869C24.854 12.5808 24.899 12.5993 24.899 12.8517V14.6371H30.9679V14.1508C31.4501 14.4032 32.2087 14.6371 33.2244 14.6371H35.7767L36.3296 13.375H37.5382L38.0847 14.6371H42.9899V13.4428L43.7421 14.6371H47.683V6.78125H43.7871V7.70475L43.2278 6.78125H39.2226V7.70475L38.734 6.78125H33.3209C32.408 6.78125 31.6044 6.89823 30.9679 7.23069V6.78125H27.2391V7.23069C26.802 6.89207 26.2555 6.78125 25.6383 6.78125H11.9898L11.0641 8.80679L10.1383 6.78125H5.8438V7.70475L5.3552 6.78125H1.69074L-6.10352e-05 10.506V14.6371H2.39791L2.94437 13.375ZM31.2315 8.54821C31.6815 8.09877 32.4015 7.88945 33.3723 7.88945H34.7159V9.09615H33.398C32.8773 9.09615 32.588 9.17003 32.3115 9.43477C32.0672 9.66872 31.9001 10.1182 31.9001 10.7092C31.9001 11.3126 32.0222 11.7374 32.2987 12.0329C32.5044 12.2545 32.8966 12.3222 33.2759 12.3222H33.9059L35.886 7.88945H37.9818L40.3669 13.2211V7.88945H42.5142L44.9829 11.8112V7.88945H46.4294V13.5289H44.4236L41.7684 9.30548V13.5289H38.9076L38.3675 12.2668H35.4424L34.9024 13.5289H33.2694C32.5815 13.5289 31.7136 13.375 31.225 12.901C30.73 12.4207 30.4793 11.7743 30.4793 10.7523C30.4793 9.91499 30.6336 9.15156 31.2315 8.54821ZM28.3513 7.88945H29.7914V13.5289H28.3513V7.88945ZM21.8903 7.88945H25.1305C25.8441 7.88945 26.3712 7.91408 26.8213 8.16034C27.2713 8.41276 27.5477 8.78216 27.5477 9.41014C27.5477 10.3029 26.9177 10.7646 26.5448 10.9062C26.8534 11.017 27.117 11.2202 27.2391 11.3864C27.4384 11.6573 27.4706 11.9159 27.4706 12.4084V13.5289H26.0562V12.8148C26.0562 12.4823 26.0884 11.9898 25.8248 11.725C25.6255 11.5219 25.3169 11.4788 24.8026 11.4788H23.2918V13.5289H21.8839V7.88945H21.8903ZM16.22 7.88945H20.9131V9.06537H17.6215V10.0812H20.8295V11.2387H17.6215V12.353L20.9131 12.3469V13.5228H16.22V7.88945ZM1.54287 13.5289H0.0127967L2.52649 7.88945H4.62231L7.00743 13.2211V7.88945H9.30897L11.1412 11.7127L12.832 7.88945H15.1721V13.5289H13.732V9.11462L11.6941 13.5289H10.4597L8.41535 9.10847V13.5289H5.54807L5.00804 12.2668H2.0829L1.54287 13.5289Z" fill="white"/>
<path d="M36.9017 8.84973L35.9438 11.0908H37.8596L36.9017 8.84973Z" fill="white"/>
<path d="M46.8857 18.885C46.7379 18.9774 46.6736 19.1128 46.6736 19.2913C46.6736 19.5007 46.8022 19.6484 46.9822 19.71C47.1236 19.7593 47.2843 19.7716 47.5222 19.7716L48.2744 19.79C49.0523 19.8085 49.5666 19.9316 49.8816 20.2456C49.9266 20.2887 49.9652 20.3318 49.9973 20.3749V18.7865H47.445C47.1943 18.7865 47.0207 18.7988 46.8857 18.885Z" fill="white"/>
<path d="M48.1009 23.2131H45.3879V22.0064H48.088C48.3516 22.0064 48.5381 21.9695 48.6538 21.8709C48.7502 21.7848 48.8209 21.6616 48.8209 21.5015C48.8209 21.3353 48.7502 21.206 48.6474 21.126C48.5445 21.0398 48.3966 21.0029 48.1588 21.0029C46.8473 20.9659 45.195 21.046 45.195 19.2544C45.195 18.4478 45.7286 17.5798 47.2073 17.5798H50.0038V16.4716H47.4001C46.6222 16.4716 46.0372 16.6439 45.6386 16.921V16.4716H41.8006C41.1898 16.4716 40.4569 16.6132 40.1162 16.921V16.4716H33.2437V16.921C32.6973 16.5516 31.7779 16.4716 31.3408 16.4716H26.8084V16.921C26.3777 16.5208 25.4262 16.4716 24.8412 16.4716H19.7623L18.5987 17.6783L17.5187 16.4716H9.94543V24.3275H17.3837L18.573 23.1023L19.7045 24.3213L24.2819 24.3275V22.4743H24.7383C25.3426 22.4743 26.0627 22.462 26.6863 22.2034V24.3275H30.4793V22.2711H30.6657C30.8972 22.2711 30.9165 22.2896 30.9165 22.4989V24.3275H42.392C43.1121 24.3275 43.89 24.1489 44.3143 23.8288V24.3275H47.953C48.7052 24.3275 49.451 24.2228 50.0167 23.9642V22.5051C49.6503 22.9853 49.0074 23.2131 48.1009 23.2131ZM24.7897 21.3292H23.0411V23.2131H20.3024L18.5794 21.3599L16.7793 23.2193H11.2055V17.5798H16.8629L18.5859 19.4329L20.3795 17.5798H24.8797C25.9855 17.5798 27.2391 17.8876 27.2391 19.4452C27.2327 21.0029 26.0177 21.3292 24.7897 21.3292ZM33.2502 21.0767C33.4495 21.3476 33.4816 21.6062 33.488 22.0987V23.2131H32.0737V22.4989C32.0737 22.1665 32.1058 21.6739 31.8422 21.4092C31.6365 21.206 31.3344 21.1629 30.82 21.1629H29.3093V23.2131H27.9013V17.5736H31.1415C31.8551 17.5736 32.3758 17.5982 32.8323 17.8506C33.2823 18.1031 33.5587 18.4725 33.5587 19.1005C33.5587 19.9932 32.9287 20.4549 32.5623 20.5965C32.8709 20.7073 33.1344 20.9105 33.2502 21.0767ZM39.0297 18.7557H35.7446V19.7715H38.959V20.9351H35.7446V22.0495H39.0362V23.2193H34.3431V17.5798H39.0362V18.7557H39.0297ZM42.6042 23.2131H39.8655V22.0064H42.5913C42.8549 22.0064 43.0414 21.9695 43.1571 21.8709C43.2535 21.7848 43.3242 21.6616 43.3242 21.5015C43.3242 21.3353 43.2535 21.206 43.1507 21.126C43.0478 21.0398 42.8999 21.0029 42.6621 21.0029C41.3506 20.9659 39.6983 21.046 39.6983 19.2544C39.6983 18.4417 40.2319 17.5798 41.7106 17.5798H44.5264V18.7865H41.9484C41.6913 18.7865 41.5241 18.7926 41.3827 18.8788C41.2348 18.9712 41.177 19.1066 41.177 19.2852C41.177 19.4945 41.3056 19.6422 41.4856 19.7038C41.6334 19.7531 41.7877 19.7654 42.0256 19.7654L42.7778 19.7838C43.5557 19.8023 44.07 19.9254 44.385 20.2394C44.6614 20.5226 44.8093 20.8489 44.8093 21.4338C44.8157 22.6405 44.0314 23.2131 42.6042 23.2131Z" fill="white"/>
<path d="M31.7136 18.8482C31.5465 18.762 31.2893 18.7559 31.045 18.7559H29.3092V20.0118H31.0257C31.2957 20.0118 31.5272 20.0057 31.7136 19.901C31.8936 19.8025 32.0029 19.6055 32.0029 19.3654C31.9965 19.1191 31.8872 18.9467 31.7136 18.8482Z" fill="white"/>
</g>
<defs>
<linearGradient id="paint0_linear_342_640" x1="25" y1="0" x2="25" y2="31" gradientUnits="userSpaceOnUse">
<stop stop-color="#1B8ABA"/>
<stop offset="1" stop-color="#005D9C"/>
</linearGradient>
</defs>
</svg>
