<svg width="50" height="31" viewBox="0 0 50 31" fill="none" xmlns="http://www.w3.org/2000/svg">
<rect width="50" height="31" rx="3" fill="#00579F"/>
<path d="M22.4666 20.8623H19.3884L21.3137 10.1716H24.3918L22.4666 20.8623Z" fill="white"/>
<path d="M33.6256 10.4332C33.0185 10.2169 32.0554 9.97803 30.8647 9.97803C27.8248 9.97803 25.6841 11.4337 25.671 13.5149C25.6457 15.0504 27.2036 15.9032 28.3688 16.4152C29.5598 16.9383 29.9646 17.2798 29.9646 17.7461C29.9525 18.4623 29.0022 18.7925 28.116 18.7925C26.887 18.7925 26.2285 18.6223 25.2278 18.2238L24.8224 18.053L24.3917 20.4528C25.1136 20.7482 26.4438 21.0103 27.8248 21.0218C31.0547 21.0218 33.1575 19.5886 33.1824 17.3708C33.1947 16.1538 32.3721 15.2213 30.5985 14.4593C29.5219 13.9702 28.8625 13.6403 28.8625 13.1398C28.8752 12.6848 29.4202 12.2188 30.6356 12.2188C31.6363 12.196 32.3716 12.412 32.9286 12.6282L33.207 12.7417L33.6256 10.4332Z" fill="white"/>
<path d="M37.7169 17.075C37.9704 16.4608 38.9458 14.0838 38.9458 14.0838C38.9331 14.1066 39.1988 13.4583 39.3509 13.0603L39.566 13.9815C39.566 13.9815 40.1489 16.5405 40.2755 17.075C39.7944 17.075 38.3249 17.075 37.7169 17.075ZM41.5166 10.1716H39.1356C38.4013 10.1716 37.8434 10.3648 37.5267 11.0586L32.9543 20.8621H36.1842C36.1842 20.8621 36.716 19.5426 36.8303 19.2585C37.1846 19.2585 40.3267 19.2585 40.7825 19.2585C40.8709 19.6338 41.1498 20.8621 41.1498 20.8621H44L41.5166 10.1716Z" fill="white"/>
<path d="M16.8173 10.1716L13.8026 17.4616L13.4732 15.9831C12.9158 14.2771 11.1679 12.4236 9.21729 11.502L11.9786 20.8509H15.2338L20.0723 10.1716H16.8173Z" fill="white"/>
<path d="M11.0033 10.1716H6.05067L6 10.3876C9.86336 11.2748 12.422 13.4133 13.4732 15.9836L12.3966 11.0703C12.2193 10.3875 11.6746 10.1942 11.0033 10.1716Z" fill="#FAA61A"/>
</svg>
