<svg width="50" height="31" viewBox="0 0 50 31" fill="none" xmlns="http://www.w3.org/2000/svg">
<rect width="50" height="31" rx="3" fill="#F9F9F9"/>
<g clip-path="url(#clip0_342_642)">
<path fill-rule="evenodd" clip-rule="evenodd" d="M14.8456 17.9311C15.2789 16.6151 15.6901 15.2813 16.004 13.9034C16.2472 13.9034 16.5258 13.9079 16.769 13.9079L16.6761 14.429C17.2952 14.0271 17.7019 13.9255 18.1043 13.9564C19.5679 14.0757 18.7808 15.9968 18.007 16.4561C17.5516 16.7255 16.937 16.8491 16.0881 16.7255C15.9864 17.1273 15.8891 17.5248 15.7874 17.9267C15.4779 17.9311 15.1639 17.9311 14.8456 17.9311ZM17.7373 15.8069C18.1795 15.4359 18.1751 14.7646 17.87 14.5747C17.5649 14.3804 16.8795 14.535 16.6584 15.087C16.4374 15.6391 16.4153 15.9747 16.2959 16.275C16.5523 16.2529 17.2952 16.1778 17.7373 15.8069Z" fill="#241F20"/>
<path fill-rule="evenodd" clip-rule="evenodd" d="M21.9998 16.8006C21.7256 16.8006 21.4824 16.805 21.2083 16.805L21.2613 16.2088C20.6954 16.7431 19.7801 17.0964 19.3556 16.593C18.7808 15.8069 19.3247 14.7823 19.9747 14.3628C20.6954 13.8946 21.6549 13.9211 22.6055 13.899C22.265 14.853 22.0395 15.8246 21.9998 16.8006ZM20.3505 14.8927C19.9658 15.2637 19.9702 15.935 20.2355 16.1249C20.5008 16.3192 21.0933 16.1646 21.2879 15.6126C21.4824 15.0605 21.4957 14.7249 21.6062 14.4246C21.3851 14.4423 20.7352 14.5217 20.3505 14.8927Z" fill="#241F20"/>
<path fill-rule="evenodd" clip-rule="evenodd" d="M22.3137 17.9532L22.4508 17.2201C23.0654 17.4188 23.6004 17.516 24.0028 17.3128C24.3167 17.1583 24.5466 16.8226 24.6749 16.2132C24.1089 16.7475 23.1936 17.1008 22.7691 16.5974C22.1943 15.8113 22.7382 14.7867 23.3882 14.3672C24.1089 13.899 25.0684 13.9255 26.019 13.9034C25.7228 14.7249 25.7184 16.01 25.3248 16.9242C25.117 17.4056 24.7677 17.7191 24.3521 17.8958C23.7463 18.1563 22.9946 18.1343 22.3137 17.9532ZM23.764 14.8927C23.3793 15.2637 23.3838 15.9349 23.649 16.1248C23.9143 16.3192 24.5113 16.1646 24.7014 15.6126C24.8959 15.0605 24.9092 14.7249 25.0197 14.4246C24.7987 14.4422 24.1487 14.5217 23.764 14.8927Z" fill="#241F20"/>
<path fill-rule="evenodd" clip-rule="evenodd" d="M31.7627 17.9532L31.8998 17.2201C32.5144 17.4188 33.0494 17.516 33.4518 17.3128C33.7657 17.1582 33.9956 16.8226 34.1238 16.2131C33.5579 16.7475 32.6426 17.1008 32.2225 16.5974C31.6477 15.8113 32.1916 14.7867 32.8416 14.3671C33.5623 13.899 34.5218 13.9255 35.4724 13.9034C35.1762 14.7248 35.1718 16.01 34.7782 16.9242C34.5704 17.4055 34.2255 17.7191 33.8055 17.8958C33.1997 18.1563 32.4436 18.1342 31.7627 17.9532ZM42.4099 15.1356C42.1402 15.6214 42.1712 16.1336 42.4851 16.2838C42.799 16.434 43.2722 16.1601 43.5419 15.6788C43.8116 15.193 43.7806 14.6807 43.4667 14.5305C43.1528 14.3804 42.6797 14.6498 42.4099 15.1356ZM42.1667 14.2744C41.3266 14.8353 40.9906 15.7848 41.4151 16.3898C41.8395 16.9948 42.8654 17.0302 43.7055 16.4693C44.5456 15.9084 44.8816 14.9589 44.4571 14.3539C44.0327 13.7444 43.0069 13.7091 42.1667 14.2744ZM38.7754 16.7078C39.1424 15.7715 39.39 14.5791 39.5757 13.9167H40.2389L40.2168 14.5129C40.5086 14.111 41.0348 13.8902 41.5698 13.9167L41.3178 14.6719C40.6546 14.5835 40.1859 15.1179 39.925 15.9923C39.8587 16.2176 39.8056 16.4605 39.7702 16.7254L38.7754 16.7078ZM36.0959 13.8946C36.37 13.9034 36.6442 13.9078 36.9183 13.9167C36.7724 14.5261 36.538 15.1135 36.3921 15.7229C36.1755 16.4649 37.0642 16.3898 37.4445 15.9305C37.7849 15.3343 37.9353 14.6144 38.1563 13.8946C38.4305 13.8946 38.7046 13.8946 38.9788 13.8946C38.6693 14.8485 38.3951 15.8024 38.2669 16.7563C38.0237 16.7431 37.7319 16.7254 37.4887 16.7122C37.4975 16.5576 37.5019 16.4075 37.5108 16.2529C36.684 17.0125 35.3265 17.2112 35.4945 15.9305C35.6007 15.2504 35.8748 14.5747 36.0959 13.8946ZM31.4001 16.1381C31.378 16.328 31.3073 16.5179 31.2852 16.7122C30.3964 16.8358 29.4414 17.039 28.9506 16.3456C28.4421 15.3652 29.1761 14.4643 29.8216 14.1242C30.9535 13.6164 31.7406 13.8769 31.9042 14.376C32.2402 15.2548 31.2012 15.8333 29.7067 15.6567C29.5519 16.4207 30.3301 16.4075 31.4001 16.1381ZM29.8481 15.1179C29.9852 14.8132 30.2196 14.504 30.6971 14.4422C31.0729 14.4069 31.1127 14.7999 30.8916 14.9501C30.4937 15.1267 30.4495 14.8883 29.8481 15.1179ZM26.1694 16.0807C26.0765 16.2794 25.9748 16.487 25.882 16.6857C27.0006 16.9286 27.8584 16.7828 28.1945 16.4207C28.5261 16.0144 28.4686 15.5551 27.8982 15.2195C27.7744 15.1356 27.4295 14.9633 27.4384 14.7602C27.4561 14.3009 28.1547 14.4113 28.5836 14.5438L28.7206 13.9167C28.42 13.846 28.0397 13.8283 27.7346 13.8548C27.3632 13.8902 26.9608 14.0536 26.6513 14.3627C26.4081 14.6144 26.3595 14.9501 26.4479 15.1576C26.554 15.405 26.8989 15.5065 27.0758 15.6125C27.3676 15.7494 27.5445 15.851 27.4958 16.0586C27.4561 16.2352 27.2394 16.3765 26.8591 16.3103C26.6204 16.2661 26.3418 16.1822 26.1694 16.0807ZM33.213 14.8927C32.8283 15.2636 32.8327 15.9349 33.098 16.1248C33.3633 16.3191 33.9602 16.1646 34.1548 15.6125C34.3493 15.0605 34.3626 14.7248 34.4687 14.4245C34.2476 14.4422 33.5977 14.5217 33.213 14.8927Z" fill="#93D629"/>
<path fill-rule="evenodd" clip-rule="evenodd" d="M7.16527 12.8878C6.87787 13.2234 6.66121 13.6032 6.50645 14.0227C6.33843 14.46 6.25 14.906 6.25 15.383C6.25 15.9218 6.36496 16.4252 6.56393 16.8978C6.76291 17.3659 7.03263 17.7722 7.38635 18.1255C7.73124 18.47 8.13803 18.7482 8.60672 18.9469C9.07541 19.1501 9.5839 19.2649 10.1145 19.2649C10.6495 19.2649 11.1536 19.1589 11.6311 18.9469C12.0865 18.7482 12.4977 18.4744 12.8515 18.1255C13.2008 17.7766 13.4705 17.3659 13.6606 16.8978C13.864 16.4208 13.979 15.9262 13.979 15.383C13.979 14.906 13.8905 14.46 13.7225 14.0227C13.5589 13.6032 13.3467 13.2322 13.0637 12.8878C12.7807 12.5521 12.4491 12.2739 12.0777 12.0575C11.4896 11.7174 10.8838 11.5143 10.1808 11.5143C10.1454 11.5143 10.1145 11.5143 10.0791 11.5143C9.38934 11.5143 8.75705 11.713 8.16014 12.0531C7.7843 12.2695 7.45268 12.5521 7.16527 12.8878Z" fill="#241F20"/>
<path fill-rule="evenodd" clip-rule="evenodd" d="M41.9767 17.4851C41.8352 17.4851 41.7025 17.5072 41.5743 17.5602C41.4505 17.6132 41.3399 17.6794 41.2471 17.7766C41.1542 17.8693 41.0791 17.9753 41.0304 18.0946C40.9818 18.2182 40.9553 18.3507 40.9553 18.492C40.9553 18.6289 40.9774 18.7614 41.0304 18.8807C41.0791 18.9955 41.1498 19.1059 41.2471 19.1986C41.3444 19.287 41.4549 19.362 41.5787 19.4106C41.6981 19.4592 41.8352 19.4857 41.9767 19.4857C42.1226 19.4857 42.2508 19.4592 42.379 19.4106C42.4984 19.362 42.6134 19.287 42.7062 19.1986C42.8035 19.1059 42.8742 18.9955 42.9229 18.8762C42.9715 18.757 42.998 18.6289 42.998 18.492C42.998 18.3507 42.9759 18.2182 42.9229 18.0946C42.8742 17.9753 42.8079 17.8693 42.7062 17.7766C42.6134 17.6838 42.4984 17.6132 42.3746 17.5602C42.2552 17.5072 42.1226 17.4851 41.9767 17.4851ZM41.9767 18.1211C42.0739 18.1211 42.1535 18.152 42.211 18.2226C42.2685 18.2889 42.2994 18.3728 42.2994 18.4876C42.2994 18.5936 42.2685 18.6819 42.211 18.7438C42.1535 18.81 42.0739 18.8409 41.9767 18.8409C41.8794 18.8409 41.8042 18.81 41.7467 18.7438C41.6848 18.6819 41.6583 18.5892 41.6583 18.4876C41.6583 18.3728 41.6848 18.2889 41.7467 18.2226C41.8086 18.1564 41.8794 18.1211 41.9767 18.1211Z" fill="#241F20"/>
<path fill-rule="evenodd" clip-rule="evenodd" d="M40.6457 18.8984C40.6634 18.81 40.6678 18.6952 40.6678 18.5583V17.5249H39.9825V18.5671C39.9825 18.682 39.9692 18.7659 39.9383 18.8145C39.9073 18.863 39.8631 18.8851 39.7879 18.8851C39.7172 18.8851 39.673 18.863 39.642 18.8145C39.6155 18.7703 39.5978 18.6864 39.5978 18.5671V17.5249H38.9169V18.5583C38.9125 18.7041 38.9257 18.8145 38.939 18.8984C38.9523 18.9867 38.9832 19.0574 39.0186 19.1148C39.0982 19.234 39.1999 19.3223 39.3325 19.3886C39.4607 19.4548 39.6155 19.4857 39.7835 19.4857C39.956 19.4857 40.1063 19.4548 40.2345 19.3886C40.3672 19.3268 40.4733 19.2384 40.5485 19.1148C40.5927 19.0574 40.6236 18.9823 40.6457 18.8984Z" fill="#241F20"/>
<path fill-rule="evenodd" clip-rule="evenodd" d="M43.9752 17.5249H43.2899V19.4372H44.6429V18.8189H43.9752V17.5249Z" fill="#241F20"/>
<path fill-rule="evenodd" clip-rule="evenodd" d="M12.6923 12.9186C12.2148 12.3356 11.5958 11.9647 10.8308 11.8189C10.0791 11.6776 9.37169 11.7924 8.69518 12.1546C8.3503 12.3489 8.05847 12.5918 7.8197 12.8744C7.57652 13.1659 7.39081 13.5015 7.27142 13.8813C7.14762 14.2656 7.11667 14.6719 7.15646 15.0693C7.25816 14.8132 7.41292 14.5835 7.5942 14.3583C7.8595 14.0447 8.1867 13.8107 8.54927 13.634C8.91184 13.4706 9.31421 13.3779 9.72984 13.369C10.1455 13.369 10.5523 13.4485 10.9281 13.6119C11.326 13.7709 11.6709 14.0182 11.9672 14.345C12.0777 14.4555 12.1706 14.5879 12.259 14.7204C12.3917 14.7204 12.5243 14.7293 12.6348 14.7602C12.9311 14.8397 13.1654 14.9942 13.3467 15.2195L13.3556 15.0737C13.3865 14.6763 13.3467 14.3053 13.2362 13.9387C13.1301 13.5766 12.9488 13.2321 12.6923 12.9186Z" fill="#FFAA00"/>
<path fill-rule="evenodd" clip-rule="evenodd" d="M7.08126 16.5709C7.1299 16.8757 7.22275 17.1671 7.37751 17.4321C7.519 17.6971 7.71355 17.9356 7.95674 18.152L8.08054 18.2536C8.5006 18.5406 8.94276 18.7438 9.43356 18.8453C9.74749 18.9028 10.0658 18.8851 10.3709 18.8144C10.6937 18.7438 10.9988 18.6157 11.2862 18.417C11.0209 18.3595 10.7866 18.2138 10.6053 18.0018L10.5345 17.9223C10.1499 17.9621 9.76518 17.9488 9.37608 17.8738C8.88528 17.7589 8.4608 17.5558 8.06728 17.2731C7.69144 16.9861 7.37751 16.6239 7.13874 16.1956L7.07684 16.0719C7.06357 16.2353 7.06357 16.4075 7.08126 16.5709Z" fill="#FFAA00"/>
<path fill-rule="evenodd" clip-rule="evenodd" d="M10.7025 14.0138C10.3488 13.8592 9.95971 13.793 9.56619 13.793C9.18151 13.8018 8.81451 13.8857 8.47847 14.0447C8.14243 14.1949 7.8506 14.4201 7.60741 14.7027C7.43497 14.9147 7.29348 15.1488 7.20062 15.3917C7.27137 15.6964 7.38191 15.979 7.54551 16.2661C7.77985 16.6636 8.08052 16.9992 8.46078 17.2598C8.82778 17.5247 9.24341 17.697 9.68999 17.7986C9.96413 17.8471 10.2515 17.8692 10.5345 17.8604C10.424 17.6793 10.3532 17.485 10.3223 17.2642C10.2825 17.039 10.2958 16.8137 10.3355 16.5752C10.3842 16.2793 10.4947 16.0055 10.6495 15.7538C10.8131 15.4977 11.0297 15.268 11.2774 15.0825C11.441 14.9633 11.6134 14.8705 11.7858 14.7999L11.693 14.6983C11.4012 14.398 11.0784 14.1639 10.7025 14.0138Z" fill="#ED3921"/>
<path fill-rule="evenodd" clip-rule="evenodd" d="M13.4174 15.7497L13.329 15.5951C13.1964 16.0544 12.9487 16.4607 12.6392 16.8272C12.5685 17.132 12.4447 17.4058 12.2855 17.6575C12.1219 17.9092 11.9097 18.1345 11.662 18.3244C11.8345 18.3332 12.0069 18.3067 12.1794 18.2405C12.343 18.183 12.4933 18.0903 12.6481 17.9666C12.8515 17.7767 13.046 17.5515 13.2096 17.3174L13.2361 17.2777C13.3069 17.1275 13.3821 16.973 13.4307 16.8317C13.4838 16.6771 13.5147 16.5269 13.5236 16.3856C13.5324 16.231 13.5324 16.0986 13.5059 15.9661C13.4749 15.891 13.444 15.8203 13.4174 15.7497Z" fill="#FF8800"/>
<path fill-rule="evenodd" clip-rule="evenodd" d="M6.72753 13.9608C6.59488 14.3273 6.52414 14.7116 6.50645 15.1311C6.49761 15.6655 6.59931 16.1866 6.8027 16.6724C6.9044 16.902 7.02378 17.1317 7.17411 17.3437C7.32003 17.5424 7.47921 17.7411 7.66049 17.909C7.26697 17.4717 7.03262 16.9683 6.96188 16.3986C6.94419 16.2043 6.94419 16.0232 6.95303 15.8289C6.82039 15.4623 6.74964 15.0958 6.74964 14.7204C6.74964 14.3671 6.81154 14.0182 6.92208 13.6649C7.01494 13.422 7.13432 13.1924 7.26697 12.976C7.03262 13.2807 6.86018 13.6075 6.72753 13.9608Z" fill="#F66418"/>
<path fill-rule="evenodd" clip-rule="evenodd" d="M13.6695 14.1772C13.5766 13.8813 13.4572 13.5942 13.3025 13.3337C13.1521 13.0775 12.9664 12.8479 12.7453 12.6359C12.5419 12.4239 12.3076 12.2384 12.0423 12.0883C12.2634 12.2428 12.4712 12.4239 12.6525 12.627C12.9399 12.9494 13.1521 13.2939 13.2848 13.6825C13.4174 14.0756 13.4749 14.4863 13.4439 14.9103C13.4351 15.0428 13.4174 15.1664 13.3953 15.2945C13.4439 15.374 13.497 15.4756 13.5412 15.5816C13.6429 15.8774 13.6606 16.191 13.612 16.5046C13.7667 16.0673 13.8463 15.6081 13.8331 15.1355C13.8109 14.8043 13.7623 14.4819 13.6695 14.1772Z" fill="#F66418"/>
<path fill-rule="evenodd" clip-rule="evenodd" d="M12.4712 15.14C12.5729 15.352 12.6348 15.5861 12.6613 15.8201C12.6923 16.0542 12.7011 16.2794 12.6834 16.5002L12.6436 16.7211C12.9487 16.3677 13.1521 15.9703 13.2715 15.511C13.2008 15.4403 13.13 15.3697 13.046 15.3123C12.8868 15.2018 12.6923 15.14 12.4712 15.14Z" fill="#F66418"/>
<path fill-rule="evenodd" clip-rule="evenodd" d="M11.861 17.8207C11.9848 17.6485 12.0821 17.4586 12.1573 17.2643C11.7461 17.5558 11.3039 17.7589 10.8131 17.8605C10.8839 17.9753 10.9767 18.0636 11.0784 18.1387C11.1801 18.2094 11.2906 18.258 11.4233 18.2977C11.5869 18.1564 11.7372 17.993 11.861 17.8207Z" fill="#ED3921"/>
<path fill-rule="evenodd" clip-rule="evenodd" d="M9.81824 18.9071L10.256 18.9292C10.6318 18.9204 10.9855 18.8497 11.3348 18.7349C11.6576 18.6245 11.976 18.4699 12.2501 18.28C12.0777 18.3639 11.8964 18.4214 11.7018 18.4302C11.6399 18.4434 11.5692 18.4434 11.4984 18.4434C10.9988 18.7658 10.4373 18.916 9.81824 18.9071Z" fill="#ED3921"/>
<path fill-rule="evenodd" clip-rule="evenodd" d="M12.2369 15.9615C12.175 15.6966 12.0821 15.4537 11.9495 15.2196C11.7151 15.2903 11.5117 15.4095 11.3216 15.5729C11.1182 15.7451 10.9458 15.9571 10.8131 16.2C10.6982 16.4429 10.6318 16.677 10.6097 16.9199C10.5832 17.1539 10.6097 17.3659 10.6716 17.5691C10.6982 17.6397 10.7203 17.7016 10.7645 17.759C11.0209 17.7325 11.2509 17.6574 11.4852 17.5558C11.7284 17.4631 11.9539 17.335 12.1661 17.1716L12.1838 17.1584C12.2236 17.0082 12.2546 16.8536 12.2767 16.7035C12.2988 16.4606 12.2899 16.2177 12.2369 15.9615Z" fill="#FFEC00"/>
</g>
<defs>
<clipPath id="clip0_342_642">
<rect width="38.3929" height="7.97143" fill="white" transform="translate(6.25 11.5143)"/>
</clipPath>
</defs>
</svg>
